<svg xmlns="http://www.w3.org/2000/svg" width="1809" height="1024"><path fill="#afb1b8" d="M457 763c4 5 6 11 6 17l-2 12-8 9c-8 6-18 9-28 8h-50V703h49c10 0 19 2 27 7 3 3 6 6 7 9 2 4 3 7 2 11 1 6-1 12-5 16s-9 7-15 8c6 2 12 5 17 9zm-58-15h20c5 0 10-1 13-4l4-5 1-5-1-6-3-5c-4-2-9-4-14-3h-20v28zm35 40 4-5c1-2 2-4 1-6 1-2 0-4-1-6l-4-5c-4-2-9-4-14-3h-21v29h22c5 0 9-1 13-4zM556 809l-27-41h-10v41h-24V703h44c12 0 23 3 31 9 6 6 10 14 11 22s-2 15-8 22c-5 6-12 9-21 11l29 42h-25zm-37-56h19c13 0 20-5 20-16l-2-6-3-6c-5-3-10-4-15-4h-20l1 32zM683 788h-46l-9 21h-24l43-105h26l42 105h-24l-8-21zm-6-16-17-45-17 45h34zM842 809h-23l-52-72v72h-23V703h23l52 73v-73h23v106zM973 784c-4 8-12 14-21 18-10 5-21 7-32 7h-41V703h41c11 0 22 2 32 7 9 4 17 10 21 18a57 57 0 0 1 0 56zm-26-3c7-7 10-16 10-25s-3-18-10-25c-8-7-18-10-29-9h-16v68h16c11 1 21-3 29-9zM697 115s298 103 292 252v252S691 516 697 367V115zM1254 560c56-35 121-57 189-64v-79c-78 28-145 78-189 143z"/><path fill="#afb1b8" d="M1220 584c46-85 126-150 223-183V174s-424 146-415 358v359l49-19 1-35c9-98 60-189 142-253z"/><path fill="#afb1b8" d="M1180 717c2-25 7-49 14-73a332 332 0 0 0-89 216c24-10 52-24 81-39-7-34-9-69-6-104zM1197 718c-3 32-2 63 5 94 116-63 246-161 241-280v-10c-83 9-160 42-221 94-14 33-22 67-25 102z"/></svg>