<svg xmlns="http://www.w3.org/2000/svg" width="1809" height="1024"><path fill="#afb1b8" d="M412 360c-41 0-74 30-74 66s33 66 74 66 74-30 74-66-33-66-74-66zM959 339c0-50-23-99-63-135s-95-55-151-56c-57 1-112 21-152 56s-63 85-63 135v279s429-43 429-279zM188 709c0 35 16 69 44 94s65 39 105 39 77-14 105-39 44-59 44-94V515s-298 30-298 194zm149 35c-8 0-15-2-22-6-6-4-11-9-14-16-3-6-4-13-2-20 1-6 5-13 10-17s13-9 20-10c8-1 16-1 23 2s13 7 17 13a32 32 0 0 1-4 44c-4 3-8 6-13 7l-15 3zM639 725h-29v29h-15v-72h47v12h-32v19h29v12zm72-5c0 7-2 13-4 19a29 29 0 0 1-27 16c-6 0-12-1-16-4s-9-7-11-12c-3-6-4-12-4-19v-3c0-8 1-14 4-19a29 29 0 0 1 27-17c6 0 11 1 16 4s8 7 11 13c2 5 4 11 4 18v4zm-16-4c0-7-1-13-4-17-2-4-6-6-11-6s-9 2-12 6-4 10-4 17v4c0 7 1 13 4 17s7 6 12 6 9-2 11-6c3-4 4-9 4-17v-4zm64 19c0-2-1-5-3-6l-10-5-13-5c-8-4-12-10-12-18 0-4 1-7 3-10 2-4 6-6 10-8l14-2c5 0 9 1 14 3 4 1 7 4 9 7l3 12h-15c0-3-1-6-3-8l-9-2c-3 0-6 0-8 2-2 1-3 4-3 6l3 6 11 5c8 2 15 5 19 9 3 4 5 9 5 14 0 7-2 12-7 15-5 4-11 5-19 5-6 0-11-1-15-3-5-2-8-4-11-8l-3-12h15c0 8 4 12 14 12 4 0 6-1 8-3 2-1 3-3 3-6zm80-41h-22v60h-15v-60h-22v-12h59v12zm53 29h-29v19h34v12h-49v-72h49v12h-34v17h29v12zm41 5h-12v26h-15v-72h27c8 0 15 2 20 5 4 4 7 10 7 17 0 5-2 9-4 12s-5 6-9 8l15 30h-16l-13-26zm-12-12h12c3 0 6-1 8-3 3-2 4-5 4-8 0-4-1-6-3-8s-5-3-9-3h-12v22zm90 13v25h-15v-72h29c5 0 10 1 14 3s8 5 10 8c2 4 3 8 3 13 0 7-2 13-7 17s-12 6-20 6h-14zm0-12h14c4 0 7-1 9-3s3-5 3-8c0-4-1-7-3-9s-5-3-9-3h-14v23zm95 6h-28v19h33v12h-48v-72h48v12h-33v17h28v12zm70-29h-22v60h-15v-60h-22v-12h59v12zm52 29h-28v19h33v12h-48v-72h48v12h-33v17h28v12zm41 5h-12v26h-15v-72h27c9 0 15 2 20 5 5 4 7 10 7 17 0 5-1 9-3 12s-5 6-10 8l16 30h-16l-14-26zm-12-12h12c4 0 7-1 9-3s3-5 3-8c0-4-1-6-3-8s-5-3-9-3h-12v22zm88 19c0-2-1-5-3-6l-10-5-13-5c-8-4-12-10-12-18 0-4 1-7 3-10 2-4 6-6 10-8l14-2c5 0 9 1 14 3 4 1 7 4 9 7l3 12h-15c0-3-1-6-3-8l-9-2c-3 0-6 0-8 2-2 1-3 4-3 6l3 6 11 5c8 2 15 5 19 9 3 4 5 9 5 14 0 7-2 12-7 15-5 4-11 5-19 5-6 0-11-1-15-3-5-2-8-4-11-8l-3-12h15c0 8 4 12 14 12 4 0 6-1 8-3 2-1 3-3 3-6z"/></svg>