<svg aria-hidden="true" style="position: absolute; width: 0; height: 0; overflow: hidden;" version="1.1" xmlns="http://www.w3.org/2000/svg" xmlns:xlink="http://www.w3.org/1999/xlink">
<defs>
<symbol id="icon-antenna" viewBox="0 0 32 32">
<path fill="#212121" style="fill: var(--color1, #212121)" d="M30.773 22.098l-8.443-8.505 0.937-4.615c0.242 0.094 0.499 0.144 0.758 0.146h0.006c1.192 0.014 2.17-0.941 2.184-2.133s-0.941-2.17-2.133-2.184c-1.192-0.014-2.17 0.941-2.184 2.133-0.003 0.255 0.039 0.509 0.125 0.749l-4.96 0.605-8.091-8.133c-0.099-0.101-0.235-0.159-0.377-0.16-0.14 0.001-0.274 0.056-0.373 0.155l-1.513 1.504c-0.208 0.208-0.208 0.546 0 0.754l0.814 0.826c-3.153 5.798-2.129 12.978 2.519 17.663 0.043 0.041 0.092 0.074 0.146 0.098-0.034 0.18-0.051 0.364-0.052 0.547v6.187h-6.4c-1.472 0.002-2.665 1.195-2.667 2.667v1.067c0 0.295 0.239 0.533 0.533 0.533h24.533c0.295 0 0.533-0.239 0.533-0.533v-1.067c-0.002-1.472-1.195-2.665-2.667-2.667h-6.4v-2.742c1.003 0.21 2.024 0.317 3.049 0.32 2.458-0.003 4.877-0.615 7.040-1.783l0.818 0.823c0.099 0.101 0.235 0.159 0.377 0.16 0.14-0.001 0.274-0.056 0.373-0.155l1.513-1.504c0.208-0.208 0.208-0.546 0-0.754zM23.28 6.233c0.418-0.415 1.093-0.414 1.508 0.004s0.414 1.093-0.004 1.508c-0.2 0.199-0.47 0.31-0.752 0.31h-0.003c-0.589-0.003-1.064-0.483-1.061-1.072 0.002-0.282 0.115-0.552 0.314-0.751h-0.002zM22.024 9.738l-0.598 2.946-1.175-1.182 1.774-1.763zM21.419 8.836l-1.92 1.909-1.485-1.493 3.405-0.415zM24.004 28.8c0.884 0 1.6 0.716 1.6 1.6v0.533h-23.467v-0.533c0-0.884 0.716-1.6 1.6-1.6h20.267zM16.537 26.667v1.067h-5.333v-1.067h5.333zM11.204 25.6v-4.053c0-1.294 1.196-2.347 2.667-2.347s2.667 1.053 2.667 2.347v4.053h-5.333zM17.604 23.904v-2.357c0-1.882-1.675-3.413-3.733-3.413-1.331-0.020-2.576 0.657-3.281 1.786-4.058-4.274-4.971-10.645-2.279-15.887l18.602 18.708c-2.872 1.461-6.165 1.873-9.309 1.163zM28.893 23.22l-21.057-21.181 0.755-0.752 7.935 7.98c0.004 0 0.006 0.007 0.010 0.010l13.115 13.191-0.757 0.752z"></path>
<path fill="#2196f3" style="fill: var(--color2, #2196f3)" d="M13.876 20.267h-0.005c-0.884-0.001-1.601 0.714-1.602 1.598s0.714 1.601 1.598 1.602h0.005c0.884 0.001 1.601-0.714 1.602-1.598s-0.714-1.601-1.598-1.602zM14.249 22.245c-0.1 0.1-0.236 0.156-0.378 0.155-0.295-0.002-0.532-0.242-0.531-0.536 0.001-0.141 0.057-0.276 0.157-0.375s0.233-0.154 0.373-0.155c0.295 0.002 0.532 0.241 0.53 0.536-0.001 0.141-0.057 0.276-0.157 0.375h0.005z"></path>
</symbol>
<symbol id="icon-astronaut" viewBox="0 0 32 32">
<path fill="#2196f3" style="fill: var(--color2, #2196f3)" d="M31.974 4.524c-0.063-0.193-0.229-0.333-0.43-0.363l-1.91-0.278-0.855-1.731c-0.179-0.365-0.777-0.365-0.956 0l-0.855 1.731-1.91 0.278c-0.201 0.029-0.367 0.17-0.431 0.363-0.062 0.193-0.011 0.405 0.135 0.547l1.383 1.348-0.326 1.903c-0.034 0.2 0.048 0.402 0.212 0.522 0.166 0.121 0.382 0.135 0.562 0.040l1.709-0.899 1.709 0.899c0.078 0.041 0.164 0.061 0.249 0.061 0.11 0 0.221-0.034 0.314-0.102 0.164-0.119 0.246-0.322 0.212-0.522l-0.326-1.903 1.383-1.348c0.145-0.142 0.197-0.354 0.135-0.547zM29.511 5.851c-0.125 0.122-0.183 0.299-0.153 0.472l0.191 1.114-1-0.526c-0.078-0.041-0.163-0.061-0.249-0.061s-0.17 0.020-0.249 0.061l-1.001 0.526 0.191-1.114c0.030-0.173-0.028-0.349-0.153-0.472l-0.81-0.789 1.119-0.163c0.174-0.025 0.324-0.134 0.402-0.292l0.5-1.013 0.5 1.013c0.078 0.157 0.228 0.267 0.402 0.292l1.119 0.163-0.809 0.789z"></path>
<path fill="#2196f3" style="fill: var(--color2, #2196f3)" d="M26.134 20.522h-1.067v1.067h1.067v-1.067z"></path>
<path fill="#2196f3" style="fill: var(--color2, #2196f3)" d="M26.134 22.656h-1.067v1.067h1.067v-1.067z"></path>
<path fill="#2196f3" style="fill: var(--color2, #2196f3)" d="M27.2 21.589h-1.067v1.067h1.067v-1.067z"></path>
<path fill="#2196f3" style="fill: var(--color2, #2196f3)" d="M25.067 21.589h-1.067v1.067h1.067v-1.067z"></path>
<path fill="#2196f3" style="fill: var(--color2, #2196f3)" d="M22.4 26.389h-1.067v1.067h1.067v-1.067z"></path>
<path fill="#2196f3" style="fill: var(--color2, #2196f3)" d="M22.4 28.522h-1.067v1.067h1.067v-1.067z"></path>
<path fill="#2196f3" style="fill: var(--color2, #2196f3)" d="M23.467 27.456h-1.067v1.067h1.067v-1.067z"></path>
<path fill="#2196f3" style="fill: var(--color2, #2196f3)" d="M21.333 27.456h-1.067v1.067h1.067v-1.067z"></path>
<path fill="#2196f3" style="fill: var(--color2, #2196f3)" d="M16 24.256h-1.067v1.067h1.067v-1.067z"></path>
<path fill="#2196f3" style="fill: var(--color2, #2196f3)" d="M16 26.389h-1.067v1.067h1.067v-1.067z"></path>
<path fill="#2196f3" style="fill: var(--color2, #2196f3)" d="M17.067 25.322h-1.067v1.067h1.067v-1.067z"></path>
<path fill="#2196f3" style="fill: var(--color2, #2196f3)" d="M14.933 25.322h-1.067v1.067h1.067v-1.067z"></path>
<path fill="#2196f3" style="fill: var(--color2, #2196f3)" d="M5.867 6.122h-1.067v1.067h1.067v-1.067z"></path>
<path fill="#2196f3" style="fill: var(--color2, #2196f3)" d="M5.867 8.255h-1.067v1.067h1.067v-1.067z"></path>
<path fill="#2196f3" style="fill: var(--color2, #2196f3)" d="M6.933 7.189h-1.067v1.067h1.067v-1.067z"></path>
<path fill="#2196f3" style="fill: var(--color2, #2196f3)" d="M4.8 7.189h-1.067v1.067h1.067v-1.067z"></path>
<path fill="#212121" style="fill: var(--color1, #212121)" d="M24.715 14.159c-0.287-0.388-0.709-0.637-1.188-0.705-0.481-0.068-0.956 0.058-1.34 0.352l-1.252 0.96-1.898 1.417-1.358-0.541c2.421-1.086 4.114-3.508 4.114-6.32 0-3.823-3.123-6.933-6.961-6.933s-6.961 3.11-6.961 6.933c0 1.386 0.414 2.674 1.12 3.758l-2.764-0.024c-0.002 0-0.003 0-0.005 0-0.009 0-0.015 0.004-0.023 0.005-0.053 0.002-0.105 0.013-0.155 0.031-0.013 0.005-0.026 0.008-0.038 0.013-0.006 0.003-0.013 0.003-0.019 0.006l-3.233 1.596c-0.001 0-0.001 0-0.001 0.001l-1.893 0.911c-0.021 0.009-0.042 0.021-0.063 0.035-0.755 0.502-1.012 1.489-0.598 2.295 0.22 0.429 0.595 0.745 1.056 0.889 0.178 0.055 0.359 0.083 0.539 0.083 0.29 0 0.577-0.071 0.839-0.211l1.388-0.738 2.264-1.169 1.357-0.008-5.442 5.416c-0.001 0.001-0.001 0.001-0.002 0.001l-1.339 1.333c-0.316 0.315-0.49 0.732-0.49 1.178s0.174 0.863 0.49 1.179c0.325 0.323 0.752 0.485 1.179 0.485s0.854-0.162 1.18-0.485l1.314-1.309 1.741-1.3 0.901 0.897-1.762 1.754c-0 0.001-0.001 0.001-0.002 0.001l-1.339 1.333c-0.316 0.315-0.49 0.732-0.49 1.178s0.174 0.863 0.49 1.179c0.325 0.323 0.753 0.485 1.18 0.485s0.855-0.162 1.18-0.485l3.482-3.467c0.001-0.001 0.001-0.001 0.001-0.002l1.010-1-0.004-0.004c0.006-0.006 0.015-0.009 0.022-0.015l5.166-5.658 3.471 0.494c0.025 0.004 0.050 0.005 0.075 0.005 0.065 0 0.127-0.015 0.187-0.038 0.018-0.006 0.033-0.015 0.050-0.023 0.019-0.010 0.039-0.015 0.058-0.027l3.213-2.133c0.012-0.008 0.018-0.021 0.029-0.029 0.013-0.010 0.029-0.014 0.041-0.026l1.271-1.191c0.662-0.62 0.753-1.635 0.212-2.362zM2.13 17.77c-0.173 0.093-0.37 0.111-0.558 0.052-0.187-0.058-0.338-0.186-0.427-0.358-0.161-0.314-0.068-0.695 0.214-0.902l1.314-0.632 0.449 1.312-0.992 0.528zM5.628 15.942l-1.548 0.8-0.439-1.283 2.027-1.001-0.040 1.484zM20.727 9.322c0 0.918-0.219 1.785-0.599 2.559l-4.181-1.899c-0.044-0.573-0.341-1.075-0.788-1.388l1.464-4.86c2.378 0.756 4.105 2.974 4.105 5.588zM8.938 9.322c0-3.235 2.644-5.867 5.894-5.867 0.253 0 0.5 0.021 0.745 0.052l-1.432 4.754c-0.019-0.001-0.037-0.006-0.057-0.006-1.033 0-1.873 0.837-1.873 1.867s0.84 1.867 1.873 1.867c0.694 0 1.294-0.383 1.618-0.945l3.862 1.755c-1.075 1.446-2.795 2.39-4.737 2.39-3.25 0-5.894-2.632-5.894-5.867zM14.894 10.122c0 0.441-0.362 0.8-0.806 0.8s-0.806-0.359-0.806-0.8c0-0.441 0.362-0.8 0.806-0.8s0.806 0.359 0.806 0.8zM2.465 25.146c-0.236 0.234-0.619 0.234-0.854 0.001-0.114-0.114-0.176-0.263-0.176-0.423s0.062-0.309 0.176-0.421l0.962-0.958 0.851 0.848-0.959 0.955zM5.679 28.88c-0.236 0.234-0.619 0.235-0.855 0.001-0.114-0.114-0.176-0.263-0.176-0.423s0.062-0.309 0.176-0.421l0.963-0.959 0.852 0.848-0.96 0.955zM9.16 25.411c-0.001 0-0.001 0-0.002 0.001l-1.765 1.76-0.852-0.848 1.763-1.755c0 0 0 0 0-0s0.001-0.001 0.002-0.001c0.040-0.040 0.065-0.088 0.090-0.135 0.007-0.014 0.020-0.026 0.026-0.040 0.017-0.041 0.019-0.085 0.026-0.129 0.003-0.025 0.014-0.047 0.014-0.073 0-0.036-0.013-0.070-0.020-0.106-0.006-0.032-0.006-0.065-0.019-0.095-0.020-0.050-0.055-0.094-0.091-0.138-0.010-0.012-0.014-0.027-0.025-0.038 0 0 0 0-0.001 0s-0.001-0.002-0.001-0.002l-1.607-1.6c-0.017-0.017-0.039-0.024-0.058-0.038-0.028-0.022-0.055-0.042-0.087-0.058-0.030-0.015-0.061-0.024-0.093-0.033-0.034-0.010-0.067-0.017-0.103-0.020-0.033-0.002-0.063 0.001-0.095 0.005-0.036 0.004-0.069 0.009-0.104 0.020-0.034 0.011-0.063 0.027-0.094 0.045-0.020 0.011-0.042 0.015-0.061 0.029l-1.773 1.324-0.901-0.897 2.399-2.386 4.361 4.289-0.928 0.919zM15.979 18.394c-0.015-0.002-0.030 0.004-0.045 0.003-0.039-0.002-0.076 0.001-0.115 0.007-0.030 0.005-0.059 0.011-0.088 0.021-0.034 0.012-0.065 0.028-0.097 0.047-0.030 0.018-0.057 0.037-0.083 0.061-0.013 0.011-0.028 0.017-0.040 0.029l-4.698 5.146-4.328-4.257 2.833-2.818c0.209-0.208 0.21-0.546 0.002-0.755-0.105-0.105-0.243-0.157-0.381-0.156v-0.001l-2.219 0.013 0.028-1.607 3.104 0.027c1.265 1.294 3.029 2.101 4.981 2.101 0.437 0 0.864-0.045 1.279-0.123 0.040 0.032 0.079 0.065 0.13 0.085l2.41 0.96 0.152 0.758 0.178 0.885-3.003-0.427zM20.020 18.572l-0.313-1.558 1.446-1.080 0.947 1.257-2.080 1.381zM23.774 15.741l-0.838 0.785-0.931-1.236 0.831-0.637c0.155-0.119 0.351-0.168 0.543-0.143 0.193 0.027 0.364 0.128 0.48 0.284 0.217 0.292 0.18 0.699-0.085 0.947z"></path>
<path fill="#212121" style="fill: var(--color1, #212121)" d="M13.602 18.544l-2.143-2.133c-0.207-0.207-0.545-0.207-0.753 0l-2.142 2.133c-0.1 0.101-0.157 0.236-0.157 0.378s0.056 0.278 0.157 0.378l2.142 2.133c0.104 0.103 0.241 0.155 0.377 0.155s0.273-0.052 0.376-0.155l2.143-2.133c0.1-0.1 0.157-0.236 0.157-0.378s-0.057-0.278-0.157-0.378zM11.083 20.303l-1.387-1.381 1.387-1.381 1.387 1.381-1.387 1.381z"></path>
<path fill="#212121" style="fill: var(--color1, #212121)" d="M17.164 5.071l-0.258 1.036c0.071 0.018 1.738 0.452 1.738 2.149h1.067c-0-2.017-1.666-2.965-2.547-3.185z"></path>
<path fill="#212121" style="fill: var(--color1, #212121)" d="M19.711 9.322h-1.067v1.067h1.067v-1.067z"></path>
</symbol>
<symbol id="icon-clock" viewBox="0 0 32 32">
<path fill="#212121" style="fill: var(--color1, #212121)" d="M31.297 15.301c-0.002-8.452-6.855-15.303-15.308-15.301s-15.303 6.855-15.301 15.308c0.001 6.658 4.307 12.551 10.649 14.576 0.061 0.019 0.124 0.029 0.187 0.029 0.121-0 0.239-0.032 0.342-0.094 0.135-0.080 0.236-0.207 0.283-0.356l3.865-12.25c1.057-0.005 1.909-0.866 1.903-1.923s-0.866-1.909-1.923-1.903c-0.284 0.001-0.565 0.067-0.82 0.191l-5.106-5.107c-0.253-0.245-0.657-0.238-0.902 0.016-0.239 0.247-0.239 0.639 0 0.886l5.103 5.109c-0.392 0.799-0.168 1.764 0.536 2.309l-3.683 11.673c-7.278-2.681-11.004-10.754-8.323-18.032s10.754-11.004 18.032-8.323 11.004 10.754 8.323 18.032c-1.31 3.556-4.001 6.431-7.462 7.973l-0.398-1.874c-0.073-0.344-0.411-0.565-0.756-0.492-0.109 0.023-0.209 0.074-0.292 0.148l-3.837 3.426c-0.263 0.234-0.287 0.637-0.052 0.9 0.076 0.085 0.174 0.149 0.283 0.184l4.899 1.563c0.335 0.108 0.694-0.077 0.802-0.412 0.034-0.106 0.040-0.219 0.017-0.328l-0.391-1.839c5.664-2.388 9.342-7.942 9.329-14.089zM15.992 14.664c0.352 0 0.638 0.286 0.638 0.638s-0.286 0.638-0.638 0.638c-0.352 0-0.638-0.285-0.638-0.638s0.285-0.638 0.638-0.638zM18.093 29.528l2.184-1.948 0.603 2.84-2.787-0.892z"></path>
<path fill="#2196f3" style="fill: var(--color2, #2196f3)" d="M15.354 3.185v1.275c0 0.352 0.285 0.638 0.638 0.638s0.638-0.285 0.638-0.638v-1.275c0-0.352-0.286-0.638-0.638-0.638s-0.638 0.286-0.638 0.638z"></path>
<path fill="#2196f3" style="fill: var(--color2, #2196f3)" d="M3.876 14.664c-0.352 0-0.638 0.286-0.638 0.638s0.285 0.638 0.638 0.638h1.275c0.352 0 0.638-0.285 0.638-0.638s-0.285-0.638-0.638-0.638h-1.275z"></path>
<path fill="#2196f3" style="fill: var(--color2, #2196f3)" d="M28.108 15.939c0.352 0 0.638-0.285 0.638-0.638s-0.285-0.638-0.638-0.638h-1.275c-0.352 0-0.638 0.286-0.638 0.638s0.286 0.638 0.638 0.638h1.275z"></path>
</symbol>
<symbol id="icon-diagram" viewBox="0 0 32 32">
<path fill="#2196f3" style="fill: var(--color2, #2196f3)" d="M14.926 14.965h1.066v4.798h-1.066v-4.797z"></path>
<path fill="#2196f3" style="fill: var(--color2, #2196f3)" d="M19.19 17.097h1.066v2.665h-1.066v-2.665z"></path>
<path fill="#2196f3" style="fill: var(--color2, #2196f3)" d="M10.661 18.696h1.066v1.066h-1.066v-1.066z"></path>
<path fill="#2196f3" style="fill: var(--color2, #2196f3)" d="M7.463 18.163h1.066v1.599h-1.066v-1.599z"></path>
<path fill="#212121" style="fill: var(--color1, #212121)" d="M1.599 28.291h25.587c0.883 0 1.599-0.716 1.599-1.599v-2.132c0-0.883-0.716-1.599-1.599-1.599h-0.533v-13.293l3.028-2.868c0.703 0.346 1.553 0.136 2.013-0.499s0.396-1.508-0.152-2.068-1.42-0.644-2.065-0.198c-0.644 0.446-0.873 1.292-0.542 2.002l-2.281 2.163v-1.23c0-0.883-0.716-1.599-1.599-1.599h-21.322c-0.883 0-1.599 0.716-1.599 1.599v15.992h-0.533c-0.883 0-1.599 0.716-1.599 1.599v2.132c0 0.883 0.716 1.599 1.599 1.599zM30.384 4.837c0.294 0 0.533 0.239 0.533 0.533s-0.239 0.533-0.533 0.533c-0.294 0-0.533-0.239-0.533-0.533s0.239-0.533 0.533-0.533zM3.198 6.969c0-0.294 0.239-0.533 0.533-0.533h21.322c0.294 0 0.533 0.239 0.533 0.533v2.239l-1.066 1.013v-2.186c0-0.294-0.239-0.533-0.533-0.533h-19.19c-0.294 0-0.533 0.239-0.533 0.533v13.326c0 0.294 0.239 0.533 0.533 0.533h19.19c0.294 0 0.533-0.239 0.533-0.533v-9.674l1.066-1.010v12.284h-22.388v-15.992zM7.996 13.899c-0.721-0.002-1.354 0.478-1.546 1.174s0.105 1.433 0.725 1.801c0.62 0.368 1.41 0.276 1.928-0.226l1.853 0.93c0.215 0.108 0.476 0.057 0.636-0.123l3.939-4.431 3.872 2.901c0.208 0.156 0.498 0.139 0.686-0.039l3.365-3.188v8.131h-18.124v-12.26h18.124v2.66l-3.771 3.572-3.904-2.927c-0.222-0.166-0.534-0.135-0.718 0.072l-3.993 4.493-1.493-0.746c0.011-0.064 0.018-0.129 0.020-0.193 0-0.883-0.716-1.599-1.599-1.599zM8.529 15.498c0 0.294-0.239 0.533-0.533 0.533s-0.533-0.239-0.533-0.533c0-0.294 0.239-0.533 0.533-0.533s0.533 0.239 0.533 0.533zM11.727 24.027h5.331v0.533c0 0.294-0.239 0.533-0.533 0.533h-4.264c-0.294 0-0.533-0.239-0.533-0.533v-0.533zM1.066 24.56c0-0.294 0.239-0.533 0.533-0.533h9.062v0.533c0 0.883 0.716 1.599 1.599 1.599h4.264c0.883 0 1.599-0.716 1.599-1.599v-0.533h9.062c0.294 0 0.533 0.239 0.533 0.533v2.132c0 0.294-0.239 0.533-0.533 0.533h-25.587c-0.294 0-0.533-0.239-0.533-0.533v-2.132z"></path>
</symbol>
<symbol id="icon-envelope" viewBox="0 0 43 32">
<path  d="M38.656 0h-34.656c-2.219 0-4 1.781-4 4v24c0 2.188 1.781 4 4 4h34.656c2.219 0 4-1.813 4-4v-24c0-2.219-1.781-4-4-4zM38.656 2.656c0.188 0 0.375 0.063 0.531 0.125l-17.844 15.438-17.844-15.438c0.156-0.063 0.313-0.125 0.5-0.125h34.656zM38.656 29.313h-34.656c-0.75 0-1.344-0.594-1.344-1.313v-22.406l17.813 15.406c0.234 0.201 0.54 0.324 0.875 0.324s0.641-0.123 0.877-0.325l-0.002 0.001 17.781-15.406v22.406c0 0.719-0.594 1.313-1.344 1.313z"></path>
</symbol>
<symbol id="icon-facebook" viewBox="0 0 32 32">
<path fill="#afb1b8" style="fill: var(--color3, #afb1b8)" d="M21.328 5.312h2.928v-5.088c-0.512-0.064-2.24-0.224-4.256-0.224-4.224 0-7.104 2.656-7.104 7.52v4.48h-4.64v5.68h4.64v14.32h5.696v-14.304h4.464l0.704-5.696h-5.168v-3.92c0-1.648 0.448-2.768 2.736-2.768z"></path>
</symbol>
<symbol id="icon-instagram" viewBox="0 0 32 32">
<path fill="#afb1b8" style="fill: var(--color3, #afb1b8)" d="M31.969 9.408c-0.075-1.7-0.35-2.869-0.744-3.882-0.406-1.075-1.032-2.038-1.851-2.838-0.8-0.813-1.769-1.444-2.832-1.844-1.019-0.394-2.182-0.669-3.882-0.744-1.713-0.081-2.257-0.1-6.601-0.1s-4.888 0.019-6.595 0.094c-1.7 0.075-2.869 0.35-3.882 0.744-1.075 0.406-2.038 1.031-2.838 1.85-0.813 0.8-1.444 1.769-1.844 2.832-0.394 1.019-0.669 2.182-0.744 3.882-0.081 1.713-0.1 2.257-0.1 6.601s0.019 4.888 0.094 6.595c0.075 1.7 0.35 2.869 0.744 3.882 0.406 1.075 1.038 2.038 1.85 2.838 0.8 0.813 1.769 1.444 2.832 1.844 1.019 0.394 2.182 0.669 3.882 0.744 1.706 0.075 2.25 0.094 6.595 0.094s4.888-0.019 6.595-0.094c1.7-0.075 2.869-0.35 3.882-0.744 2.151-0.832 3.851-2.532 4.682-4.682 0.394-1.019 0.669-2.182 0.744-3.882 0.075-1.707 0.094-2.251 0.094-6.595s-0.006-4.888-0.081-6.595zM29.087 22.473c-0.069 1.563-0.331 2.407-0.55 2.969-0.538 1.394-1.644 2.5-3.038 3.038-0.563 0.219-1.413 0.481-2.969 0.55-1.688 0.075-2.194 0.094-6.464 0.094s-4.782-0.019-6.464-0.094c-1.563-0.069-2.407-0.331-2.969-0.55-0.694-0.256-1.325-0.663-1.838-1.194-0.531-0.519-0.938-1.144-1.194-1.838-0.219-0.563-0.481-1.413-0.55-2.969-0.075-1.688-0.094-2.194-0.094-6.464s0.019-4.782 0.094-6.464c0.069-1.563 0.331-2.407 0.55-2.969 0.256-0.694 0.663-1.325 1.2-1.838 0.519-0.531 1.144-0.938 1.838-1.194 0.563-0.219 1.413-0.481 2.969-0.55 1.688-0.075 2.194-0.094 6.464-0.094 4.276 0 4.782 0.019 6.464 0.094 1.563 0.069 2.407 0.331 2.969 0.55 0.694 0.256 1.325 0.662 1.838 1.194 0.531 0.519 0.938 1.144 1.194 1.838 0.219 0.563 0.481 1.413 0.55 2.969 0.075 1.688 0.094 2.194 0.094 6.464s-0.019 4.77-0.094 6.458z"></path>
<path fill="#afb1b8" style="fill: var(--color3, #afb1b8)" d="M16.059 7.783c-4.538 0-8.22 3.682-8.22 8.22s3.682 8.22 8.22 8.22c4.539 0 8.22-3.682 8.22-8.22s-3.682-8.22-8.22-8.22zM16.059 21.335c-2.944 0-5.332-2.388-5.332-5.332s2.388-5.332 5.332-5.332c2.944 0 5.332 2.388 5.332 5.332s-2.388 5.332-5.332 5.332z"></path>
<path fill="#afb1b8" style="fill: var(--color3, #afb1b8)" d="M26.524 7.458c0 1.060-0.859 1.919-1.919 1.919s-1.919-0.859-1.919-1.919c0-1.060 0.859-1.919 1.919-1.919s1.919 0.859 1.919 1.919z"></path>
</symbol>
<symbol id="icon-linkedin" viewBox="0 0 32 32">
<path fill="#afb1b8" style="fill: var(--color3, #afb1b8)" d="M32 32v-11.744c0-5.728-1.232-10.16-7.952-10.16-0.076-0.003-0.166-0.005-0.256-0.005-2.555 0-4.788 1.376-5.999 3.428l-0.018 0.032h-0.096v-2.912h-6.368v21.36h6.64v-10.576c0-2.784 0.528-5.488 3.968-5.488 3.408 0 3.456 3.184 3.456 5.664v10.4h6.624zM0.528 10.64h6.64v21.36h-6.64v-21.36zM3.84 0c-2.121 0-3.84 1.719-3.84 3.84v0c-0 0.005-0 0.010-0 0.016 0 2.127 1.715 3.854 3.838 3.872h0.002c2.128 0 3.84-1.76 3.84-3.888 0-2.121-1.719-3.84-3.84-3.84v0z"></path>
</symbol>
<symbol id="icon-Logo" viewBox="0 0 57 32">
<path fill="#afb1b8" style="fill: var(--color3, #afb1b8)" d="M20.267 3.733l3.733 3.536h-6.933v17.157h18.133v-6.56l3.733 3.531v-17.664h-18.667zM35.040 17.456l-10.608-10.032h10.608v10.027zM31.744 21.925h-11.808v-11.547h0.837v10.763h10.971v0.784zM22.725 26.72l-0.437 0.896-0.437-0.896h-0.363l0.64 1.2v0.693h0.325v-0.693l0.64-1.2h-0.373zM23.275 28.613l0.149-0.437h0.736l0.16 0.437h0.341l-0.72-1.893h-0.293l-0.72 1.893h0.347zM23.792 27.12l0.277 0.789h-0.549l0.272-0.789zM25.531 27.867c-0.043 0.066-0.069 0.146-0.069 0.233 0 0.001 0 0.001 0 0.002v-0c0 0.16 0.053 0.293 0.165 0.389 0.112 0.101 0.267 0.149 0.453 0.149s0.347-0.053 0.48-0.149l0.107 0.123h0.373l-0.283-0.325c0.107-0.149 0.16-0.341 0.16-0.576h-0.267c0 0.128-0.032 0.245-0.085 0.347l-0.363-0.427 0.128-0.101c0.091-0.064 0.16-0.128 0.197-0.197 0.037-0.061 0.058-0.134 0.058-0.212 0-0.12-0.051-0.229-0.133-0.305l-0-0c-0.085-0.076-0.197-0.123-0.321-0.123-0.005 0-0.011 0-0.016 0l0.001-0c-0.009-0.001-0.020-0.001-0.030-0.001-0.13 0-0.248 0.049-0.338 0.129l0-0c-0.083 0.084-0.134 0.199-0.134 0.326 0 0.009 0 0.018 0.001 0.027l-0-0.001c0 0.064 0.016 0.128 0.043 0.192s0.080 0.144 0.155 0.235c-0.11 0.073-0.204 0.162-0.281 0.264l-0.002 0.003zM26.384 28.283c-0.081 0.066-0.185 0.106-0.299 0.107h-0c-0.005 0-0.010 0-0.016 0-0.080 0-0.153-0.031-0.208-0.081l0 0c-0.053-0.051-0.086-0.123-0.086-0.203 0-0.004 0-0.008 0-0.011l-0 0.001c0-0.107 0.053-0.192 0.16-0.272l0.037-0.032 0.411 0.491zM26.048 27.44c-0.091-0.107-0.133-0.197-0.133-0.272 0-0.064 0.016-0.117 0.053-0.16 0.034-0.036 0.082-0.059 0.136-0.059 0.003 0 0.006 0 0.008 0h-0c0.059 0 0.107 0.016 0.144 0.053 0.037 0.032 0.053 0.075 0.053 0.123 0 0.075-0.027 0.139-0.080 0.187l-0.037 0.032-0.144 0.096zM29.131 28.475c0.133-0.117 0.208-0.272 0.224-0.48h-0.325c-0.016 0.139-0.059 0.235-0.123 0.293-0.069 0.059-0.16 0.085-0.293 0.085-0.005 0-0.011 0-0.016 0-0.126 0-0.237-0.063-0.303-0.159l-0.001-0.001c-0.075-0.107-0.112-0.267-0.112-0.469v-0.165c0-0.203 0.037-0.357 0.117-0.459 0.075-0.107 0.187-0.16 0.331-0.16 0.123 0 0.213 0.032 0.277 0.091s0.107 0.16 0.123 0.293h0.325c-0.010-0.189-0.092-0.358-0.218-0.48l-0-0c-0.126-0.107-0.291-0.172-0.47-0.172-0.013 0-0.025 0-0.038 0.001l0.002-0c-0.16 0-0.293 0.037-0.411 0.107-0.117 0.080-0.213 0.181-0.272 0.32-0.064 0.133-0.096 0.293-0.096 0.469v0.181c0 0.171 0.032 0.325 0.096 0.459s0.149 0.235 0.267 0.304c0.117 0.075 0.251 0.107 0.4 0.107 0.213 0 0.389-0.053 0.517-0.165zM31.067 28.208c0.064-0.144 0.096-0.304 0.096-0.491v-0.107c0-0.187-0.032-0.347-0.096-0.48-0.114-0.26-0.369-0.438-0.666-0.438-0.010 0-0.019 0-0.029 0.001l0.001-0c-0.149 0-0.288 0.037-0.405 0.112s-0.213 0.187-0.277 0.325c-0.064 0.144-0.101 0.304-0.101 0.491v0.107c0 0.181 0.037 0.341 0.101 0.48s0.16 0.245 0.277 0.32c0.123 0.075 0.261 0.112 0.411 0.112 0.16 0 0.293-0.037 0.416-0.107 0.117-0.080 0.213-0.187 0.272-0.325zM30.715 27.136c0.080 0.107 0.123 0.272 0.123 0.48v0.101c0 0.213-0.043 0.373-0.123 0.485-0.070 0.101-0.186 0.166-0.316 0.166-0.007 0-0.014-0-0.021-0.001l0.001 0c-0.004 0-0.009 0-0.015 0-0.132 0-0.249-0.065-0.321-0.164l-0.001-0.001c-0.078-0.124-0.124-0.274-0.124-0.436 0-0.017 0.001-0.035 0.002-0.052l-0 0.002v-0.107c0-0.208 0.043-0.363 0.123-0.48 0.072-0.098 0.186-0.161 0.315-0.161 0.007 0 0.015 0 0.022 0.001l-0.001-0c0.144 0 0.256 0.053 0.336 0.16z"></path>
</symbol>
<symbol id="icon-Logo-1" viewBox="0 0 57 32">
<path fill="#afb1b8" style="fill: var(--color3, #afb1b8)" d="M26.725 3.163h-0.069l-0.336-0.011h-0.245c-0.015-0-0.034-0-0.052-0-0.226 0-0.45 0.006-0.672 0.017l0.031-0.001c-1.941 0.107-3.84 0.597-5.605 1.429l-0.229 0.112v11.808l0.539-0.181c1.729-0.623 3.724-0.994 5.802-1.019l0.011-0v1.552l-0.565 0.016h-0.043c-2.689 0.149-5.175 0.892-7.369 2.098l0.089-0.045v-15.152c1.196-0.71 2.58-1.288 4.045-1.662l0.11-0.024c1.172-0.314 2.518-0.497 3.907-0.501h0.232c0.973 0.003 1.916 0.129 2.814 0.364l-0.078-0.017v1.531c-0.544-0.134-1.188-0.236-1.848-0.286l-0.040-0.002h-0.037c-0.133-0.011-0.267-0.027-0.389-0.027zM29.413 4.725c0.301 0.019 0.653 0.030 1.008 0.030 1.474 0 2.904-0.19 4.266-0.547l-0.117 0.026c1.503-0.383 2.82-0.911 4.045-1.586l-0.087 0.044v14.875c-1.196 0.711-2.579 1.291-4.044 1.667l-0.11 0.024c-1.28 0.325-2.592 0.496-3.909 0.501-0.027 0-0.059 0-0.091 0-1.023 0-2.015-0.128-2.963-0.37l0.083 0.018v-14.971c0.553 0.135 1.209 0.238 1.881 0.286l0.039 0.002zM36.987 4.843l-0.539 0.181c-1.791 0.645-3.858 1.017-6.011 1.017-0.337 0-0.673-0.009-1.006-0.027l0.046 0.002-0.437-0.027v12.144l0.373 0.032c0.309 0.024 0.669 0.037 1.031 0.037 1.263 0 2.488-0.163 3.655-0.47l-0.1 0.022c1.056-0.271 1.972-0.612 2.84-1.036l-0.088 0.039 0.235-0.107v-11.808z"></path>
<path fill="#afb1b8" style="fill: var(--color3, #afb1b8)" d="M19.061 24.112c-0.145-0.148-0.348-0.241-0.572-0.241-0.011 0-0.022 0-0.032 0.001l0.002-0c-0.117 0-0.235 0.021-0.347 0.064-0.3 0.12-0.508 0.408-0.508 0.745 0 0.014 0 0.028 0.001 0.041l-0-0.002v2.027c0 0.139 0.021 0.283 0.080 0.411 0.053 0.107 0.117 0.197 0.203 0.272 0.080 0.069 0.176 0.117 0.277 0.144s0.203 0.043 0.304 0.043c0.464-0.009 0.837-0.388 0.837-0.853 0-0 0-0 0-0v0-0.224h-0.533v0.176c0.005 0.064 0 0.128-0.027 0.181-0.017 0.046-0.042 0.085-0.075 0.117v0c-0.060 0.046-0.136 0.073-0.218 0.075h-0c-0.011 0.002-0.023 0.002-0.036 0.002-0.088 0-0.166-0.043-0.215-0.108l-0-0.001c-0.047-0.073-0.075-0.162-0.075-0.257 0-0.005 0-0.010 0-0.015l-0 0.001v-1.888c0-0.107 0.021-0.208 0.069-0.299 0.048-0.075 0.131-0.124 0.226-0.124 0.011 0 0.021 0.001 0.032 0.002l-0.001-0c0.003-0 0.006-0 0.009-0 0.092 0 0.173 0.044 0.225 0.111l0 0.001c0.057 0.072 0.091 0.163 0.091 0.263 0 0.001 0 0.003-0 0.004v-0 0.181h0.523v-0.208c0-0.002 0-0.005 0-0.007 0-0.243-0.091-0.465-0.241-0.634l0.001 0.001zM22.203 24.091c-0.162-0.136-0.374-0.219-0.604-0.219-0.112 0-0.22 0.020-0.32 0.055l0.007-0.002c-0.107 0.037-0.197 0.091-0.277 0.16-0.091 0.085-0.16 0.181-0.208 0.288-0.053 0.123-0.080 0.256-0.075 0.395v1.936c-0.005 0.139 0.021 0.272 0.075 0.4 0.048 0.107 0.117 0.197 0.208 0.267 0.080 0.080 0.171 0.139 0.277 0.176 0.094 0.035 0.202 0.055 0.315 0.055s0.221-0.020 0.321-0.057l-0.006 0.002c0.329-0.114 0.562-0.421 0.562-0.783 0-0.019-0.001-0.038-0.002-0.057l0 0.003v-1.941c0.001-0.011 0.001-0.024 0.001-0.038 0-0.252-0.107-0.48-0.278-0.639l-0-0zM21.957 26.704c0.001 0.009 0.001 0.019 0.001 0.029 0 0.1-0.041 0.189-0.108 0.253l-0 0c-0.067 0.055-0.153 0.089-0.248 0.089s-0.181-0.034-0.249-0.090l0.001 0c-0.067-0.063-0.108-0.153-0.108-0.252 0-0.011 0-0.022 0.002-0.033l-0 0.001v-1.936c-0.001-0.009-0.001-0.020-0.001-0.031 0-0.099 0.041-0.188 0.108-0.251l0-0c0.067-0.055 0.153-0.089 0.248-0.089s0.181 0.034 0.249 0.090l-0.001-0c0.067 0.063 0.108 0.153 0.108 0.252 0 0.011-0 0.022-0.002 0.033l0-0.001v1.936zM26.331 27.573v-3.68h-0.512l-0.667 1.947h-0.011l-0.672-1.947h-0.501v3.675h0.523v-2.24h0.011l0.512 1.584h0.267l0.517-1.579h0.005v2.235h0.528zM29.312 24.16c-0.080-0.096-0.181-0.16-0.299-0.203-0.109-0.037-0.234-0.059-0.365-0.059-0.005 0-0.010 0-0.015 0h-0.778v3.675h0.523v-1.44h0.267c0.165 0.011 0.325-0.021 0.475-0.096 0.212-0.132 0.361-0.347 0.405-0.597l0.001-0.005c0.021-0.124 0.032-0.266 0.032-0.411 0-0.187-0.020-0.369-0.057-0.545l0.003 0.017c-0.036-0.134-0.103-0.249-0.192-0.342l0 0zM29.045 25.28c-0.005 0.064-0.021 0.128-0.053 0.187-0.032 0.053-0.075 0.107-0.133 0.128-0.068 0.034-0.148 0.053-0.233 0.053-0.004 0-0.009-0-0.013-0h-0.239v-1.253h0.267c0.085 0 0.16 0.011 0.24 0.048 0.053 0.027 0.096 0.075 0.123 0.133 0.026 0.060 0.042 0.129 0.043 0.202v0.502zM31.787 23.899h-0.427l-0.8 3.675h0.523l0.155-0.789h0.709l0.16 0.789h0.517l-0.827-3.675zM31.307 26.283l0.261-1.333h0.005l0.256 1.333h-0.523zM35.173 26.112h-0.011l-0.789-2.213h-0.501v3.675h0.523v-2.208h0.011l0.795 2.208h0.491v-3.68h-0.523v2.213zM38.373 23.899l-0.427 1.461h-0.005l-0.427-1.461h-0.549l0.72 2.123v1.547h0.523v-1.547l0.72-2.123h-0.555zM17.6 28.608h0.251v0.709h0.171v-0.709h0.251v-0.144h-0.672v0.144zM19.723 28.464l-0.331 0.853h0.181l0.069-0.192h0.341l0.069 0.192h0.187l-0.336-0.853h-0.181zM19.696 28.981l0.112-0.32 0.117 0.32h-0.229zM21.813 29.003h0.203v0.107c-0.055 0.046-0.125 0.073-0.202 0.075h-0c-0.004 0-0.009 0-0.014 0-0.067 0-0.128-0.031-0.167-0.080l-0-0c-0.040-0.057-0.065-0.128-0.065-0.205 0-0.007 0-0.013 0.001-0.020l-0 0.001c0-0.187 0.080-0.283 0.245-0.283 0.005-0 0.011-0.001 0.017-0.001 0.083 0 0.154 0.056 0.175 0.133l0 0.001 0.171-0.032c-0.037-0.165-0.16-0.251-0.363-0.251-0.005-0-0.010-0-0.016-0-0.109 0-0.208 0.041-0.283 0.107l0-0c-0.077 0.076-0.124 0.18-0.124 0.296 0 0.012 0 0.024 0.002 0.036l-0-0.002c0 0.117 0.032 0.235 0.107 0.32 0.076 0.079 0.183 0.129 0.301 0.129 0.009 0 0.017-0 0.026-0.001l-0.001 0c0.133 0 0.267-0.048 0.363-0.139v-0.336h-0.373v0.144zM23.957 28.464h-0.171v0.853h0.597v-0.144h-0.427v-0.709zM25.771 28.464h-0.176v0.853h0.176v-0.853zM27.541 29.035l-0.352-0.571h-0.165v0.853h0.16v-0.555l0.341 0.555h0.171v-0.853h-0.16v0.571zM29.141 28.944h0.427v-0.144h-0.427v-0.192h0.453v-0.144h-0.629v0.853h0.651v-0.144h-0.48v-0.229zM33.019 28.8h-0.336v-0.336h-0.171v0.853h0.171v-0.373h0.336v0.373h0.171v-0.853h-0.171v0.336zM34.629 28.944h0.427v-0.144h-0.427v-0.192h0.459v-0.144h-0.629v0.853h0.645v-0.144h-0.475v-0.229zM36.811 28.944c0.149-0.027 0.224-0.107 0.224-0.24 0.001-0.007 0.001-0.016 0.001-0.024 0-0.066-0.032-0.125-0.081-0.162l-0.001-0c-0.064-0.034-0.141-0.054-0.222-0.054-0.010 0-0.020 0-0.030 0.001l0.001-0h-0.363v0.853h0.171v-0.357h0.032c0.037 0 0.075 0.005 0.107 0.021 0.027 0.016 0.053 0.037 0.064 0.064l0.187 0.267h0.203l-0.107-0.16c-0.043-0.085-0.107-0.16-0.187-0.213zM36.64 28.827h-0.128v-0.213h0.133c0.059-0.005 0.123 0 0.176 0.016 0.027 0.020 0.044 0.051 0.044 0.086 0 0.038-0.019 0.071-0.049 0.090l-0 0c-0.043 0.014-0.093 0.022-0.145 0.022-0.011 0-0.021-0-0.032-0.001l0.001 0zM38.459 28.944h0.427v-0.144h-0.427v-0.192h0.459v-0.144h-0.629v0.853h0.645v-0.144h-0.475v-0.229z"></path>
</symbol>
<symbol id="icon-Logo-2" viewBox="0 0 57 32">
<path fill="#afb1b8" style="fill: var(--color3, #afb1b8)" d="M19.413 26.187l0.027 0.005 0.021 0.011 0.117 0.112c-0.091 0.091-0.203 0.16-0.325 0.213-0.149 0.053-0.309 0.080-0.464 0.075-0.149 0-0.299-0.021-0.437-0.069-0.246-0.085-0.439-0.268-0.537-0.501l-0.002-0.006c-0.050-0.117-0.080-0.254-0.080-0.397s0.029-0.28 0.082-0.404l-0.003 0.007c0.053-0.112 0.128-0.219 0.229-0.309 0.096-0.085 0.213-0.155 0.347-0.197 0.134-0.048 0.289-0.076 0.451-0.076 0.15 0 0.294 0.024 0.428 0.069l-0.010-0.003c0.112 0.043 0.219 0.107 0.309 0.181l-0.096 0.117c-0.007 0.009-0.016 0.016-0.026 0.021l-0 0c-0.010 0.007-0.023 0.011-0.037 0.011-0 0-0 0-0 0h0c-0.016-0.002-0.031-0.008-0.043-0.016l0 0-0.053-0.032-0.069-0.037c-0.107-0.054-0.234-0.086-0.368-0.086-0.013 0-0.026 0-0.040 0.001l0.002-0c-0.107 0-0.219 0.016-0.32 0.053-0.19 0.065-0.339 0.206-0.414 0.385l-0.002 0.005c-0.040 0.091-0.063 0.197-0.064 0.309v0c0 0.107 0.021 0.219 0.059 0.32 0.073 0.181 0.219 0.32 0.401 0.383l0.005 0.001c0.096 0.032 0.197 0.053 0.299 0.053l0.176-0.011c0.148-0.016 0.28-0.076 0.385-0.166l-0.001 0.001c0.014-0.012 0.033-0.020 0.053-0.021h0zM22.773 25.627c0 0.139-0.021 0.267-0.075 0.395-0.053 0.112-0.123 0.213-0.219 0.304-0.101 0.091-0.213 0.16-0.347 0.203-0.283 0.096-0.597 0.096-0.885 0-0.132-0.047-0.245-0.116-0.342-0.203l0.001 0.001c-0.092-0.085-0.166-0.188-0.216-0.304l-0.002-0.006c-0.107-0.251-0.107-0.533 0-0.784 0.053-0.117 0.123-0.219 0.219-0.309 0.101-0.085 0.213-0.149 0.341-0.197 0.132-0.046 0.284-0.072 0.443-0.072s0.311 0.026 0.452 0.075l-0.010-0.003c0.128 0.048 0.245 0.117 0.347 0.203 0.181 0.166 0.294 0.404 0.294 0.668 0 0.011-0 0.021-0.001 0.032l0-0.002zM22.469 25.627c0-0.107-0.016-0.213-0.053-0.315-0.071-0.181-0.215-0.32-0.395-0.383l-0.005-0.001c-0.096-0.032-0.206-0.051-0.32-0.051s-0.224 0.019-0.327 0.053l0.007-0.002c-0.097 0.033-0.181 0.084-0.251 0.15l0-0c-0.069 0.064-0.123 0.142-0.158 0.23l-0.002 0.004c-0.069 0.208-0.069 0.427 0 0.635 0.071 0.183 0.218 0.323 0.401 0.383l0.005 0.001c0.208 0.064 0.437 0.064 0.64 0 0.096-0.037 0.181-0.085 0.251-0.149 0.069-0.069 0.123-0.149 0.155-0.235 0.037-0.107 0.053-0.213 0.053-0.32zM25.067 25.957l0.032 0.075 0.032-0.075 0.037-0.069 0.747-1.173c0.011-0.016 0.027-0.032 0.037-0.032 0.019-0.007 0.041-0.011 0.064-0.011v0h0.219v1.909h-0.261v-1.525l-0.747 1.189c-0.010 0.018-0.025 0.033-0.042 0.042l-0.001 0c-0.018 0.010-0.040 0.016-0.063 0.016-0 0-0 0-0.001 0h-0.043c-0.001 0-0.001 0-0.002 0-0.023 0-0.044-0.006-0.063-0.016l0.001 0c-0.018-0.010-0.033-0.025-0.042-0.042l-0-0.001-0.768-1.2v1.536h-0.256v-1.909h0.224c0.016 0 0.037 0 0.059 0.011 0.016 0.005 0.032 0.016 0.043 0.032l0.757 1.173 0.037 0.069zM27.861 25.867v0.715h-0.288v-1.909h0.651c0.117 0 0.24 0.016 0.357 0.043 0.096 0.021 0.181 0.064 0.256 0.117 0.069 0.053 0.117 0.117 0.149 0.187 0.032 0.080 0.053 0.16 0.048 0.245 0 0.002 0 0.003 0 0.005 0 0.174-0.083 0.328-0.212 0.426l-0.001 0.001c-0.075 0.059-0.16 0.107-0.256 0.128-0.102 0.030-0.219 0.048-0.34 0.048-0.004 0-0.008-0-0.013-0h0.001l-0.352-0.005zM27.861 25.659h0.352c0.080 0 0.155-0.005 0.229-0.027 0.061-0.020 0.115-0.049 0.161-0.086l-0.001 0.001c0.082-0.068 0.133-0.17 0.133-0.284 0-0.002 0-0.003-0-0.005v0c0-0.006 0.001-0.013 0.001-0.020 0-0.047-0.010-0.091-0.028-0.131l0.001 0.002c-0.026-0.053-0.062-0.098-0.106-0.133l-0.001-0.001c-0.107-0.075-0.245-0.107-0.389-0.101h-0.352v0.784zM31.771 26.581h-0.229c-0.002 0-0.005 0-0.007 0-0.021 0-0.041-0.006-0.057-0.017l0 0c-0.016-0.011-0.028-0.025-0.037-0.042l-0-0.001-0.197-0.464h-0.992l-0.208 0.464c-0.017 0.038-0.054 0.064-0.098 0.064-0.003 0-0.006-0-0.009-0l0 0h-0.224l0.875-1.915h0.304l0.88 1.909zM30.331 25.872h0.821l-0.347-0.773c-0.027-0.059-0.048-0.123-0.064-0.181l-0.032 0.101-0.032 0.080-0.347 0.773zM33.029 24.683l0.043 0.032 1.275 1.44v-1.483h0.256v1.909h-0.144c-0.021 0-0.043 0-0.059-0.011-0.019-0.010-0.035-0.022-0.048-0.037l-0-0-1.269-1.44v1.488h-0.261v-1.909h0.16c0.011 0 0.032 0 0.048 0.011zM36.747 25.824v0.757h-0.288v-0.757l-0.805-1.152h0.261c0.002-0 0.005-0 0.007-0 0.021 0 0.041 0.006 0.057 0.017l-0-0 0.037 0.043 0.501 0.747c0.032 0.047 0.062 0.101 0.088 0.158l0.003 0.007 0.037-0.080 0.053-0.085 0.491-0.747c0.011-0.016 0.023-0.030 0.037-0.042l0-0c0.016-0.013 0.037-0.021 0.060-0.021 0.001 0 0.002 0 0.004 0h0.266l-0.811 1.157zM24.923 21.472l0.384 0.032c1.947-0.747 3.565-1.984 4.754-3.562l0.020-0.027c1.060-1.413 1.697-3.195 1.697-5.127 0-0.054-0-0.107-0.001-0.161l0 0.008-2.165-1.877c0.443 1.989 0.235 4.043-0.592 5.936-0.907 1.983-2.311 3.605-4.054 4.753l-0.042 0.026z"></path>
<path fill="#afb1b8" style="fill: var(--color3, #afb1b8)" d="M24.149 21.387l0.059 0.005c1.973-1.227 3.483-2.939 4.32-4.923 0.478-1.079 0.756-2.337 0.756-3.66 0-0.898-0.128-1.765-0.367-2.586l0.016 0.065-3.083-2.672c0.96 1.642 1.527 3.616 1.527 5.722 0 0.483-0.030 0.959-0.088 1.427l0.006-0.056c-0.351 2.604-1.485 4.894-3.153 6.679l0.006-0.007zM34.597 14.843c-0.599 2.176-1.882 3.994-3.6 5.256l-0.027 0.019c-0.533 0.405-1.109 0.763-1.717 1.072 1.488-0.379 2.859-1.051 4-1.963 1.103-0.874 1.982-1.982 2.569-3.252l0.023-0.055-1.248-1.077z"></path>
<path fill="#afb1b8" style="fill: var(--color3, #afb1b8)" d="M34.107 14.539l-1.781-1.547c-0.047 1.877-0.666 3.6-1.687 5.013l0.018-0.026c-1.113 1.534-2.58 2.746-4.284 3.529l-0.068 0.028h0.011c0.4 0 0.8-0.021 1.195-0.059 1.692-0.597 3.134-1.537 4.301-2.744l0.003-0.003c1.093-1.13 1.895-2.549 2.281-4.13l0.013-0.062zM24.411 6.485l-2.123-1.845c-1.894 0.624-3.485 1.738-4.674 3.193l-0.014 0.018c-1.089 1.342-1.754 3.066-1.771 4.946l-0 0.004c0.028 2.083 0.84 3.971 2.154 5.386l-0.005-0.005c1.429 1.538 3.31 2.637 5.431 3.087l0.068 0.012c1.84-1.897 3.041-4.423 3.251-7.225l0.002-0.039c0.012-0.192 0.018-0.416 0.018-0.642 0-2.604-0.88-5.003-2.358-6.915l0.019 0.026zM39.008 14.256c-0.005-2.32-1.067-4.533-2.955-6.176-1.884-1.596-4.342-2.566-7.027-2.566-0.027 0-0.054 0-0.081 0l0.004-0c-1.232 0-2.453 0.197-3.605 0.587l12.992 11.28c0.423-0.919 0.67-1.993 0.672-3.125v-0.001z"></path>
</symbol>
<symbol id="icon-Logo-3" viewBox="0 0 57 32">
<path fill="#afb1b8" style="fill: var(--color3, #afb1b8)" d="M12.875 11.25c-1.281 0-2.313 0.938-2.313 2.063s1.031 2.063 2.313 2.063 2.313-0.938 2.313-2.063-1.031-2.063-2.313-2.063zM29.969 10.594c0-1.563-0.719-3.094-1.969-4.219s-2.969-1.719-4.719-1.75c-1.781 0.031-3.5 0.656-4.75 1.75s-1.969 2.656-1.969 4.219v8.719s13.406-1.344 13.406-8.719zM5.875 22.156c0 1.094 0.5 2.156 1.375 2.938s2.031 1.219 3.281 1.219 2.406-0.438 3.281-1.219 1.375-1.844 1.375-2.938v-6.063s-9.313 0.938-9.313 6.063zM10.531 23.25c-0.25 0-0.469-0.063-0.688-0.188-0.188-0.125-0.344-0.281-0.438-0.5-0.094-0.188-0.125-0.406-0.063-0.625 0.031-0.188 0.156-0.406 0.313-0.531s0.406-0.281 0.625-0.313c0.25-0.031 0.5-0.031 0.719 0.063s0.406 0.219 0.531 0.406c0.135 0.169 0.217 0.386 0.217 0.622 0 0.3-0.132 0.569-0.341 0.752l-0.001 0.001c-0.125 0.094-0.25 0.188-0.406 0.219l-0.469 0.094zM19.969 22.656h-0.906v0.906h-0.469v-2.25h1.469v0.375h-1v0.594h0.906v0.375zM22.219 22.5c0 0.219-0.063 0.406-0.125 0.594-0.152 0.299-0.458 0.501-0.81 0.501-0.012 0-0.023-0-0.035-0.001l0.002 0c-0.188 0-0.375-0.031-0.5-0.125s-0.281-0.219-0.344-0.375c-0.094-0.188-0.125-0.375-0.125-0.594v-0.094c0-0.25 0.031-0.438 0.125-0.594 0.146-0.316 0.46-0.531 0.825-0.531 0.007 0 0.013 0 0.020 0l-0.001-0c0.188 0 0.344 0.031 0.5 0.125s0.25 0.219 0.344 0.406c0.063 0.156 0.125 0.344 0.125 0.563v0.125zM21.719 22.375c0-0.219-0.031-0.406-0.125-0.531-0.063-0.125-0.188-0.188-0.344-0.188s-0.281 0.063-0.375 0.188-0.125 0.313-0.125 0.531v0.125c0 0.219 0.031 0.406 0.125 0.531s0.219 0.188 0.375 0.188 0.281-0.063 0.344-0.188c0.094-0.125 0.125-0.281 0.125-0.531v-0.125zM23.719 22.969c0-0.063-0.031-0.156-0.094-0.188l-0.313-0.156-0.406-0.156c-0.25-0.125-0.375-0.313-0.375-0.563 0-0.125 0.031-0.219 0.094-0.313 0.063-0.125 0.188-0.188 0.313-0.25l0.438-0.063c0.156 0 0.281 0.031 0.438 0.094 0.125 0.031 0.219 0.125 0.281 0.219l0.094 0.375h-0.469c0-0.094-0.031-0.188-0.094-0.25l-0.281-0.063c-0.094 0-0.188 0-0.25 0.063-0.063 0.031-0.094 0.125-0.094 0.188l0.094 0.188 0.344 0.156c0.25 0.063 0.469 0.156 0.594 0.281 0.094 0.125 0.156 0.281 0.156 0.438 0 0.219-0.063 0.375-0.219 0.469-0.156 0.125-0.344 0.156-0.594 0.156-0.188 0-0.344-0.031-0.469-0.094-0.156-0.063-0.25-0.125-0.344-0.25l-0.094-0.375h0.469c0 0.25 0.125 0.375 0.438 0.375 0.125 0 0.188-0.031 0.25-0.094 0.063-0.031 0.094-0.094 0.094-0.188zM26.219 21.688h-0.688v1.875h-0.469v-1.875h-0.688v-0.375h1.844v0.375zM27.875 22.594h-0.906v0.594h1.063v0.375h-1.531v-2.25h1.531v0.375h-1.063v0.531h0.906v0.375zM29.156 22.75h-0.375v0.813h-0.469v-2.25h0.844c0.25 0 0.469 0.063 0.625 0.156 0.125 0.125 0.219 0.313 0.219 0.531 0 0.156-0.063 0.281-0.125 0.375s-0.156 0.188-0.281 0.25l0.469 0.938h-0.5l-0.406-0.813zM28.781 22.375h0.375c0.094 0 0.188-0.031 0.25-0.094 0.094-0.063 0.125-0.156 0.125-0.25 0-0.125-0.031-0.188-0.094-0.25s-0.156-0.094-0.281-0.094h-0.375v0.688zM31.594 22.781v0.781h-0.469v-2.25h0.906c0.156 0 0.313 0.031 0.438 0.094s0.25 0.156 0.313 0.25c0.063 0.125 0.094 0.25 0.094 0.406 0 0.219-0.063 0.406-0.219 0.531s-0.375 0.188-0.625 0.188h-0.438zM31.594 22.406h0.438c0.125 0 0.219-0.031 0.281-0.094s0.094-0.156 0.094-0.25c0-0.125-0.031-0.219-0.094-0.281s-0.156-0.094-0.281-0.094h-0.438v0.719zM34.563 22.594h-0.875v0.594h1.031v0.375h-1.5v-2.25h1.5v0.375h-1.031v0.531h0.875v0.375zM36.75 21.688h-0.688v1.875h-0.469v-1.875h-0.688v-0.375h1.844v0.375zM38.375 22.594h-0.875v0.594h1.031v0.375h-1.5v-2.25h1.5v0.375h-1.031v0.531h0.875v0.375zM39.656 22.75h-0.375v0.813h-0.469v-2.25h0.844c0.281 0 0.469 0.063 0.625 0.156 0.156 0.125 0.219 0.313 0.219 0.531 0 0.156-0.031 0.281-0.094 0.375s-0.156 0.188-0.313 0.25l0.5 0.938h-0.5l-0.438-0.813zM39.281 22.375h0.375c0.125 0 0.219-0.031 0.281-0.094s0.094-0.156 0.094-0.25c0-0.125-0.031-0.188-0.094-0.25s-0.156-0.094-0.281-0.094h-0.375v0.688zM42.031 22.969c0-0.063-0.031-0.156-0.094-0.188l-0.313-0.156-0.406-0.156c-0.25-0.125-0.375-0.313-0.375-0.563 0-0.125 0.031-0.219 0.094-0.313 0.063-0.125 0.188-0.188 0.313-0.25l0.438-0.063c0.156 0 0.281 0.031 0.438 0.094 0.125 0.031 0.219 0.125 0.281 0.219l0.094 0.375h-0.469c0-0.094-0.031-0.188-0.094-0.25l-0.281-0.063c-0.094 0-0.188 0-0.25 0.063-0.063 0.031-0.094 0.125-0.094 0.188l0.094 0.188 0.344 0.156c0.25 0.063 0.469 0.156 0.594 0.281 0.094 0.125 0.156 0.281 0.156 0.438 0 0.219-0.063 0.375-0.219 0.469-0.156 0.125-0.344 0.156-0.594 0.156-0.188 0-0.344-0.031-0.469-0.094-0.156-0.063-0.25-0.125-0.344-0.25l-0.094-0.375h0.469c0 0.25 0.125 0.375 0.438 0.375 0.125 0 0.188-0.031 0.25-0.094 0.063-0.031 0.094-0.094 0.094-0.188z"></path>
</symbol>
<symbol id="icon-Logo-4" viewBox="0 0 57 32">
<path fill="#afb1b8" style="fill: var(--color3, #afb1b8)" d="M14.281 23.844c0.125 0.156 0.188 0.344 0.188 0.531l-0.063 0.375-0.25 0.281c-0.25 0.188-0.563 0.281-0.875 0.25h-1.563v-3.313h1.531c0.313 0 0.594 0.063 0.844 0.219 0.094 0.094 0.188 0.188 0.219 0.281 0.063 0.125 0.094 0.219 0.063 0.344 0.031 0.188-0.031 0.375-0.156 0.5s-0.281 0.219-0.469 0.25c0.188 0.063 0.375 0.156 0.531 0.281zM12.469 23.375h0.625c0.156 0 0.313-0.031 0.406-0.125l0.125-0.156 0.031-0.156-0.031-0.188-0.094-0.156c-0.125-0.063-0.281-0.125-0.438-0.094h-0.625v0.875zM13.563 24.625l0.125-0.156c0.031-0.063 0.063-0.125 0.031-0.188 0.031-0.063 0-0.125-0.031-0.188l-0.125-0.156c-0.125-0.063-0.281-0.125-0.438-0.094h-0.656v0.906h0.688c0.156 0 0.281-0.031 0.406-0.125zM17.375 25.281l-0.844-1.281h-0.313v1.281h-0.75v-3.313h1.375c0.375 0 0.719 0.094 0.969 0.281 0.188 0.188 0.313 0.438 0.344 0.688s-0.063 0.469-0.25 0.688c-0.156 0.188-0.375 0.281-0.656 0.344l0.906 1.313h-0.781zM16.219 23.531h0.594c0.406 0 0.625-0.156 0.625-0.5l-0.063-0.188-0.094-0.188c-0.156-0.094-0.313-0.125-0.469-0.125h-0.625l0.031 1zM21.344 24.625h-1.438l-0.281 0.656h-0.75l1.344-3.281h0.813l1.313 3.281h-0.75l-0.25-0.656zM21.156 24.125l-0.531-1.406-0.531 1.406h1.063zM26.313 25.281h-0.719l-1.625-2.25v2.25h-0.719v-3.313h0.719l1.625 2.281v-2.281h0.719v3.313zM30.406 24.5c-0.125 0.25-0.375 0.438-0.656 0.563-0.313 0.156-0.656 0.219-1 0.219h-1.281v-3.313h1.281c0.344 0 0.688 0.063 1 0.219 0.281 0.125 0.531 0.313 0.656 0.563 0.145 0.252 0.23 0.553 0.23 0.875s-0.085 0.623-0.234 0.884l0.005-0.009zM29.594 24.406c0.219-0.219 0.313-0.5 0.313-0.781s-0.094-0.563-0.313-0.781c-0.25-0.219-0.563-0.313-0.906-0.281h-0.5v2.125h0.5c0.344 0.031 0.656-0.094 0.906-0.281zM21.781 3.594s9.313 3.219 9.125 7.875v7.875s-9.313-3.219-9.125-7.875v-7.875zM39.188 17.5c1.75-1.094 3.781-1.781 5.906-2v-2.469c-2.438 0.875-4.531 2.438-5.906 4.469z"></path>
<path fill="#afb1b8" style="fill: var(--color3, #afb1b8)" d="M38.125 18.25c1.438-2.656 3.938-4.688 6.969-5.719v-7.094s-13.25 4.563-12.969 11.188v11.219l1.531-0.594 0.031-1.094c0.281-3.063 1.875-5.906 4.438-7.906z"></path>
<path fill="#afb1b8" style="fill: var(--color3, #afb1b8)" d="M36.875 22.406c0.063-0.781 0.219-1.531 0.438-2.281-1.654 1.771-2.697 4.131-2.781 6.733l-0 0.017c0.75-0.313 1.625-0.75 2.531-1.219-0.219-1.063-0.281-2.156-0.188-3.25zM37.406 22.438c-0.094 1-0.063 1.969 0.156 2.938 3.625-1.969 7.688-5.031 7.531-8.75v-0.313c-2.594 0.281-5 1.313-6.906 2.938-0.438 1.031-0.688 2.094-0.781 3.188z"></path>
</symbol>
<symbol id="icon-Logo-5" viewBox="0 0 57 32">
<path fill="#afb1b8" style="fill: var(--color3, #afb1b8)" d="M28.491 14.613c-0.202-0.262-0.323-0.594-0.323-0.955 0-0.035 0.001-0.071 0.003-0.105l-0 0.005v-1.536c0-0.475 0.107-0.832 0.32-1.077s0.587-0.368 1.104-0.363c0.485 0 0.837 0.107 1.040 0.309 0.224 0.267 0.331 0.592 0.309 0.923v0.357h-0.875v-0.363c0-0.123-0.005-0.24-0.027-0.357-0.014-0.086-0.059-0.161-0.122-0.213l-0.001-0c-0.079-0.054-0.178-0.087-0.283-0.087-0.013 0-0.026 0-0.038 0.001l0.002-0c-0.009-0.001-0.021-0.001-0.032-0.001-0.112 0-0.215 0.034-0.301 0.093l0.002-0.001c-0.074 0.058-0.127 0.139-0.149 0.232l-0.001 0.003c-0.021 0.123-0.032 0.251-0.032 0.373v1.867c-0.016 0.187 0.027 0.363 0.112 0.528 0.043 0.053 0.107 0.101 0.176 0.128 0.050 0.019 0.107 0.030 0.167 0.030 0.020 0 0.040-0.001 0.059-0.004l-0.002 0c0.012 0.001 0.027 0.002 0.041 0.002 0.1 0 0.193-0.031 0.27-0.083l-0.002 0.001c0.069-0.056 0.118-0.136 0.133-0.227l0-0.002c0.016-0.123 0.027-0.251 0.027-0.373v-0.384h0.875v0.347c0.021 0.341-0.085 0.683-0.304 0.965-0.203 0.229-0.544 0.341-1.045 0.341-0.507 0-0.885-0.123-1.104-0.373zM32.139 14.635c-0.224-0.24-0.331-0.587-0.331-1.051v-1.616c0-0.459 0.107-0.8 0.331-1.040 0.219-0.235 0.587-0.352 1.109-0.347 0.512 0 0.88 0.112 1.099 0.347 0.224 0.235 0.336 0.581 0.336 1.040v1.616c0 0.459-0.112 0.805-0.336 1.045-0.224 0.245-0.587 0.363-1.099 0.363s-0.891-0.123-1.109-0.357zM33.653 14.245c0.080-0.149 0.117-0.315 0.107-0.48v-1.979c0.011-0.16-0.027-0.32-0.107-0.469-0.046-0.057-0.105-0.101-0.173-0.127l-0.003-0.001c-0.050-0.019-0.108-0.031-0.168-0.031-0.021 0-0.043 0.001-0.063 0.004l0.002-0c-0.019-0.003-0.041-0.004-0.064-0.004-0.061 0-0.12 0.011-0.174 0.032l0.003-0.001c-0.073 0.027-0.134 0.071-0.181 0.127l-0.001 0.001c-0.075 0.144-0.112 0.309-0.107 0.469v1.989c-0.005 0.16 0.027 0.331 0.107 0.48 0.109 0.098 0.254 0.158 0.413 0.158 0.080 0 0.156-0.015 0.226-0.042l-0.004 0.001c0.075-0.027 0.133-0.069 0.187-0.117v-0.011zM35.733 10.624h0.944l0.709 2.987 0.725-2.987h0.917l0.091 4.309h-0.677l-0.075-2.992-0.693 2.992h-0.555l-0.725-3.003-0.064 3.003h-0.688l0.085-4.309zM40.176 10.624h1.467c0.848 0 1.269 0.411 1.269 1.227 0 0.779-0.443 1.173-1.333 1.173h-0.501v1.909h-0.907l0.005-4.309zM41.429 12.469c0.091 0.005 0.181 0 0.267-0.021 0.085-0.027 0.165-0.064 0.235-0.117 0.101-0.144 0.149-0.32 0.128-0.485 0-0.133-0.011-0.267-0.043-0.389-0.015-0.048-0.038-0.089-0.070-0.123l0 0c-0.031-0.035-0.068-0.063-0.11-0.084l-0.002-0.001c-0.128-0.053-0.267-0.075-0.405-0.069h-0.352v1.291h0.352zM44.213 10.624h0.976l1.003 4.309h-0.848l-0.197-0.992h-0.869l-0.203 0.992h-0.853l0.997-4.309zM45.051 13.44l-0.341-1.808-0.336 1.813h0.677zM46.997 10.624h0.635l1.211 2.459v-2.453h0.757v4.304h-0.603l-1.221-2.56v2.56h-0.779v-4.309zM51.36 13.291l-1.013-2.661h0.853l0.613 1.707 0.576-1.707h0.832l-0.992 2.667v1.637h-0.875v-1.643zM29.893 16.816v0.224h-0.741v1.755h-0.309v-1.755h-0.747v-0.224h1.797zM32.213 18.795h-0.245c-0.024 0-0.046-0.008-0.064-0.022l0 0c-0.018-0.010-0.033-0.025-0.042-0.042l-0-0.001-0.213-0.469h-1.024l-0.213 0.469c-0.006 0.021-0.018 0.039-0.032 0.053v0c-0.016 0.010-0.036 0.017-0.057 0.017-0.004 0-0.008-0-0.013-0.001l0 0h-0.24l0.907-1.973h0.32l0.912 1.968zM30.709 18.059h0.853l-0.363-0.8c-0.023-0.052-0.044-0.116-0.062-0.182l-0.002-0.010-0.037 0.107-0.032 0.085-0.357 0.8zM33.771 18.597h0.171c0.101-0.005 0.196-0.024 0.285-0.055l-0.007 0.002 0.117-0.053v-0.443h-0.357c-0.002 0-0.004 0-0.007 0-0.018 0-0.034-0.006-0.047-0.016l0 0c-0.004-0.004-0.008-0.010-0.011-0.016l-0-0-0.005-0.021v-0.149h0.704v0.757c-0.174 0.108-0.381 0.179-0.603 0.197l-0.005 0c-0.091 0.011-0.176 0.016-0.267 0.016-0.16 0-0.309-0.027-0.459-0.075-0.14-0.049-0.26-0.12-0.364-0.209l0.001 0.001c-0.095-0.085-0.172-0.188-0.227-0.303l-0.002-0.006c-0.059-0.133-0.085-0.272-0.085-0.411-0-0.010-0.001-0.022-0.001-0.034 0-0.277 0.124-0.524 0.319-0.691l0.001-0.001c0.096-0.091 0.224-0.16 0.357-0.208 0.142-0.048 0.305-0.076 0.475-0.076 0.092 0 0.183 0.008 0.271 0.024l-0.009-0.001c0.149 0.021 0.284 0.066 0.407 0.131l-0.007-0.003c0.053 0.027 0.107 0.064 0.16 0.101l-0.091 0.123c-0.008 0.012-0.019 0.021-0.032 0.026l-0 0c-0.011 0.006-0.024 0.010-0.037 0.011h-0c-0.020-0.001-0.038-0.007-0.054-0.016l0.001 0c-0.032-0.011-0.059-0.027-0.091-0.048-0.144-0.071-0.313-0.112-0.492-0.112-0.009 0-0.017 0-0.026 0l0.001-0c-0.005-0-0.012-0-0.018-0-0.119 0-0.234 0.020-0.341 0.056l0.008-0.002c-0.107 0.037-0.192 0.091-0.267 0.16-0.072 0.066-0.13 0.146-0.169 0.236l-0.002 0.004c-0.080 0.213-0.080 0.448 0 0.661 0.126 0.267 0.393 0.449 0.702 0.449 0.035 0 0.069-0.002 0.102-0.007l-0.004 0zM36.661 18.565h0.987v0.229h-1.291v-1.973h0.309l-0.005 1.744zM38.677 18.795h-0.309v-1.973h0.309v1.973zM39.829 16.827c0.021 0.011 0.037 0.021 0.048 0.037l1.323 1.488v-1.541h0.267v1.984h-0.149c-0.027 0-0.048 0-0.069-0.011-0.019-0.010-0.034-0.022-0.048-0.037l-0-0-1.323-1.493v1.541h-0.261v-1.973h0.213zM43.755 16.816v0.213h-1.099v0.656h0.891v0.213h-0.891v0.672h1.099v0.213h-1.419v-1.968h1.419zM11.285 4.619l13.76 3.371v11.819l-13.76-3.371v-11.819zM10.405 3.605v13.408l15.52 3.808v-13.408l-15.525-3.803z"></path>
<path fill="#afb1b8" style="fill: var(--color3, #afb1b8)" d="M18.72 27.040l-15.52-3.819v-13.392l15.52 3.808v13.397z"></path>
<path fill="#afb1b8" style="fill: var(--color3, #afb1b8)" d="M10.661 4.464l13.579 3.328-5.776 4.987-13.579-3.328 5.776-4.987zM10.405 3.611l-7.205 6.219 15.52 3.808 7.2-6.224-15.52-3.803zM19.595 26.283l6.331-5.467-6.331-1.552v7.019z"></path>
</symbol>
<symbol id="icon-smartphone" viewBox="0 0 20 32">
<path  d="M17 0h-14c-1.66 0-3 1.34-3 3v26c0 1.66 1.34 3 3 3h14c1.66 0 3-1.34 3-3v-26c0-1.66-1.34-3-3-3zM3 2h14c0.56 0 1 0.44 1 1v21h-16v-21c0-0.56 0.44-1 1-1zM17 30h-14c-0.552 0-1-0.448-1-1v0-3h16v3c0 0.552-0.448 1-1 1v0z"></path>
<path  d="M4.7 27.48c0.4 0.36 0.4 0.96 0 1.32-0.186 0.164-0.431 0.264-0.7 0.264s-0.514-0.1-0.701-0.265l0.001 0.001c-0.177-0.165-0.288-0.399-0.288-0.66s0.111-0.495 0.288-0.659l0.001-0.001c0.4-0.36 1-0.36 1.4 0z"></path>
</symbol>
<symbol id="icon-twitter" viewBox="0 0 32 32">
<path fill="#afb1b8" style="fill: var(--color3, #afb1b8)" d="M32 6.080c-1.184 0.528-2.464 0.864-3.776 1.040 1.36-0.816 2.4-2.080 2.88-3.632-1.28 0.752-2.672 1.28-4.16 1.6-1.202-1.298-2.915-2.107-4.817-2.107-3.623 0-6.56 2.937-6.56 6.56 0 0.538 0.065 1.060 0.187 1.56l-0.009-0.045c-5.462-0.281-10.265-2.883-13.477-6.83l-0.027-0.034c-0.558 0.949-0.887 2.089-0.887 3.307 0 2.26 1.134 4.255 2.865 5.446l0.022 0.014c-1.040 0-2.080-0.32-2.96-0.8v0.064c0 3.2 2.272 5.84 5.264 6.448-0.518 0.147-1.113 0.232-1.728 0.232-0.442 0-0.873-0.044-1.29-0.127l0.042 0.007c0.878 2.623 3.284 4.493 6.136 4.56l0.008 0c-2.221 1.763-5.066 2.828-8.159 2.828-0.547 0-1.087-0.033-1.617-0.098l0.064 0.006c2.826 1.846 6.286 2.944 10.003 2.944 0.022 0 0.043-0 0.065-0h-0.003c12.080 0 18.672-10 18.672-18.672 0-0.288 0-0.576-0.032-0.848 1.312-0.928 2.4-2.080 3.296-3.408z"></path>
</symbol>
</defs>
</svg>
