<svg width="0" height="0" class="hidden">
  <symbol xmlns="http://www.w3.org/2000/svg" fill="none" viewBox="0 0 20 20" id="twitter">
    <g clip-path="url(#a)">
      <path fill="#AFB1B8" d="M20 3.8c-.74.33-1.54.54-2.36.65.85-.51 1.5-1.3 1.8-2.27-.8.47-1.67.8-2.6 1a4.1 4.1 0 0 0-7 3.73A11.6 11.6 0 0 1 1.4 2.62 4.13 4.13 0 0 0 2.65 8.1C2 8.1 1.35 7.9.8 7.6v.04c0 2 1.42 3.65 3.29 4.03a4.09 4.09 0 0 1-1.86.07 4.14 4.14 0 0 0 3.84 2.85A8.24 8.24 0 0 1 0 16.3a11.54 11.54 0 0 0 6.29 1.84c7.55 0 11.67-6.25 11.67-11.67 0-.18 0-.36-.02-.53.82-.58 1.5-1.3 2.06-2.13Z"></path>
    </g>
    <defs>
      <clipPath id="a">
        <path fill="#fff" d="M0 0h20v20H0z"></path>
      </clipPath>
    </defs>
  </symbol>
  <symbol xmlns="http://www.w3.org/2000/svg" fill="none" viewBox="0 0 10 16" id="smartphone">
    <path fill="#afb1b8" d="M8.5 0h-7C.67 0 0 .67 0 1.5v13c0 .83.67 1.5 1.5 1.5h7c.83 0 1.5-.67 1.5-1.5v-13C10 .67 9.33 0 8.5 0Zm-7 1h7c.28 0 .5.22.5.5V12H1V1.5c0-.28.22-.5.5-.5Zm7 14h-7a.5.5 0 0 1-.5-.5V13h8v1.5a.5.5 0 0 1-.5.5Z"></path>
    <path fill="#afb1b8" d="M2.35 13.74c.2.18.2.48 0 .66a.53.53 0 0 1-.7 0 .45.45 0 0 1 0-.66c.2-.18.5-.18.7 0Z"></path>
  </symbol>
  <symbol xmlns="http://www.w3.org/2000/svg" fill="none" viewBox="0 0 66 70" id="satelite-icon">
    <path fill="#212121" d="m65.32 48.34-18.47-18.6 2.05-10.1c.53.2 1.09.31 1.66.32h.01a4.72 4.72 0 1 0-4.4-3.14l-10.84 1.32L17.63.35A1.17 1.17 0 0 0 16.8 0c-.3 0-.6.12-.81.34l-3.31 3.29c-.46.46-.46 1.2 0 1.65l1.78 1.8a32.69 32.69 0 0 0 5.51 38.64c.1.1.2.16.32.22-.07.4-.11.8-.11 1.2v13.53h-14A5.84 5.84 0 0 0 .34 66.5v2.33c0 .65.52 1.17 1.17 1.17h53.67c.64 0 1.16-.52 1.16-1.17V66.5a5.84 5.84 0 0 0-5.83-5.83h-14v-6a32.48 32.48 0 0 0 22.07-3.2l1.79 1.8c.21.22.51.35.82.35.3 0 .6-.13.82-.34l3.3-3.3c.46-.45.46-1.19 0-1.64Zm-16.4-34.7a2.33 2.33 0 1 1 1.65 3.98 2.33 2.33 0 0 1-1.64-3.99Zm-2.74 7.66-1.31 6.44-2.57-2.58 3.88-3.86Zm-1.33-1.97-4.2 4.17-3.25-3.26 7.45-.91ZM50.51 63a3.5 3.5 0 0 1 3.5 3.5v1.17H2.68V66.5a3.5 3.5 0 0 1 3.5-3.5H50.5Zm-16.33-4.67v2.34H22.5v-2.34h11.67ZM22.5 56v-8.87c0-2.83 2.62-5.13 5.83-5.13 3.22 0 5.84 2.3 5.84 5.13V56H22.5Zm14-3.71v-5.16c0-4.11-3.66-7.46-8.17-7.46a8.31 8.31 0 0 0-7.18 3.9 30.34 30.34 0 0 1-4.98-34.75l40.7 40.93a30.23 30.23 0 0 1-20.37 2.54Zm24.7-1.5-1.65-1.65L16.79 6.12l-1.65-1.66 1.65-1.64 17.36 17.45.02.02 28.69 28.86-1.66 1.64Z"></path>
    <path fill="#2196F3" d="M28.35 44.33a3.5 3.5 0 0 0-.02 7h.01a3.5 3.5 0 1 0 .01-7Zm.82 4.33a1.17 1.17 0 1 1-.83-2 1.17 1.17 0 0 1 .82 2Z"></path>
  </symbol>
  <symbol xmlns="http://www.w3.org/2000/svg" fill="none" viewBox="0 0 106 60" id="Logo-5">
    <path fill="#AFB1B8" d="M53.42 27.4a2.95 2.95 0 0 1-.6-1.98v-2.88c0-.89.2-1.56.6-2.02.4-.46 1.1-.69 2.07-.68.91 0 1.57.2 1.95.58.42.5.62 1.11.58 1.73v.67h-1.64v-.68c0-.23-.01-.45-.05-.67a.65.65 0 0 0-.23-.4.95.95 0 0 0-.6-.16 1 1 0 0 0-.62.17.77.77 0 0 0-.28.44c-.04.23-.06.47-.06.7v3.5c-.03.35.05.68.21.99.08.1.2.19.33.24a.9.9 0 0 0 .42.05.9.9 0 0 0 .58-.15.7.7 0 0 0 .25-.43c.03-.23.05-.47.05-.7V25h1.64v.65c.04.64-.16 1.28-.57 1.81-.38.43-1.02.64-1.96.64-.95 0-1.66-.23-2.07-.7ZM60.26 27.44c-.42-.45-.62-1.1-.62-1.97v-3.03c0-.86.2-1.5.62-1.95.41-.44 1.1-.66 2.08-.65.96 0 1.65.21 2.06.65.42.44.63 1.09.63 1.95v3.03c0 .86-.21 1.51-.63 1.96-.42.46-1.1.68-2.06.68s-1.67-.23-2.08-.67Zm2.84-.73c.15-.28.22-.59.2-.9V22.1c.02-.3-.05-.6-.2-.88a.78.78 0 0 0-.33-.24.9.9 0 0 0-.43-.05.92.92 0 0 0-.44.05.79.79 0 0 0-.34.24c-.14.27-.21.58-.2.88v3.73c-.01.3.05.62.2.9a1.16 1.16 0 0 0 1.19.22c.14-.05.25-.13.35-.22v-.02ZM67 19.92h1.77l1.33 5.6 1.36-5.6h1.72l.17 8.08h-1.27l-.14-5.61-1.3 5.61H69.6l-1.36-5.63-.12 5.63h-1.29l.16-8.08ZM75.33 19.92h2.75c1.59 0 2.38.77 2.38 2.3 0 1.46-.83 2.2-2.5 2.2h-.94V28h-1.7l.01-8.08Zm2.35 3.46c.17.01.34 0 .5-.04.16-.05.31-.12.44-.22.19-.27.28-.6.24-.91 0-.25-.02-.5-.08-.73a.6.6 0 0 0-.13-.23.7.7 0 0 0-.21-.16c-.24-.1-.5-.14-.76-.13h-.66v2.42h.66ZM82.9 19.92h1.83L86.61 28h-1.59l-.37-1.86h-1.63L82.64 28h-1.6l1.87-8.08Zm1.57 5.28-.64-3.39-.63 3.4h1.27ZM88.12 19.92h1.19l2.27 4.61v-4.6H93V28h-1.13l-2.29-4.8V28h-1.46v-8.08ZM96.3 24.92l-1.9-4.99H96l1.15 3.2 1.08-3.2h1.56l-1.86 5V28h-1.64v-3.08ZM56.05 31.53v.42h-1.39v3.29h-.58v-3.29h-1.4v-.42h3.37ZM60.4 35.24h-.46a.2.2 0 0 1-.12-.04.2.2 0 0 1-.08-.08l-.4-.88h-1.92l-.4.88a.24.24 0 0 1-.06.1.2.2 0 0 1-.13.03h-.45l1.7-3.7h.6l1.71 3.69Zm-2.82-1.38h1.6l-.68-1.5a2.7 2.7 0 0 1-.12-.36l-.07.2-.06.16-.67 1.5ZM63.32 34.87h.32a1.92 1.92 0 0 0 .52-.1l.22-.1v-.83h-.67a.14.14 0 0 1-.1-.03.09.09 0 0 1-.02-.03l-.01-.04v-.28h1.32v1.42a2.58 2.58 0 0 1-1.14.37c-.17.02-.33.03-.5.03-.3 0-.58-.05-.86-.14a2.09 2.09 0 0 1-.68-.39 1.8 1.8 0 0 1-.43-.58c-.11-.25-.16-.51-.16-.77a1.7 1.7 0 0 1 .6-1.36c.18-.17.42-.3.67-.39a2.85 2.85 0 0 1 1.38-.1 2.33 2.33 0 0 1 .75.24c.1.05.2.12.3.19l-.17.23a.14.14 0 0 1-.06.05.17.17 0 0 1-.07.02.22.22 0 0 1-.1-.03c-.06-.02-.11-.05-.17-.09a2.13 2.13 0 0 0-.97-.21 2 2 0 0 0-.66.1c-.2.07-.36.17-.5.3a1.3 1.3 0 0 0-.32.45c-.15.4-.15.84 0 1.24a1.45 1.45 0 0 0 1.5.83ZM68.74 34.81h1.85v.43h-2.42v-3.7h.58l-.01 3.27ZM72.52 35.24h-.58v-3.7h.58v3.7ZM74.68 31.55c.04.02.07.04.09.07l2.48 2.79v-2.89h.5v3.72h-.28c-.05 0-.09 0-.13-.02a.33.33 0 0 1-.09-.07l-2.48-2.8v2.89h-.49v-3.7h.4ZM82.04 31.53v.4h-2.06v1.23h1.67v.4h-1.67v1.26h2.06v.4h-2.66v-3.69h2.66ZM21.16 8.66l25.8 6.32v22.16l-25.8-6.32V8.66Zm-1.65-1.9V31.9l29.1 7.14V13.9L19.5 6.77Z"></path>
    <path fill="#AFB1B8" d="M35.1 50.7 6 43.54V18.43l29.1 7.14v25.12Z"></path>
    <path fill="#AFB1B8" d="m19.99 8.37 25.46 6.24-10.83 9.35-25.46-6.24 10.83-9.35Zm-.48-1.6L6 18.43l29.1 7.14L48.6 13.9 19.5 6.77ZM36.74 49.28l11.87-10.25-11.87-2.91v13.16Z"></path>
  </symbol>
  <symbol xmlns="http://www.w3.org/2000/svg" viewBox="0 0 1809 1024" id="Logo-4">
    <path fill="#afb1b8" d="M457 763c4 5 6 11 6 17l-2 12-8 9c-8 6-18 9-28 8h-50V703h49c10 0 19 2 27 7 3 3 6 6 7 9 2 4 3 7 2 11 1 6-1 12-5 16s-9 7-15 8c6 2 12 5 17 9zm-58-15h20c5 0 10-1 13-4l4-5 1-5-1-6-3-5c-4-2-9-4-14-3h-20v28zm35 40 4-5c1-2 2-4 1-6 1-2 0-4-1-6l-4-5c-4-2-9-4-14-3h-21v29h22c5 0 9-1 13-4zM556 809l-27-41h-10v41h-24V703h44c12 0 23 3 31 9 6 6 10 14 11 22s-2 15-8 22c-5 6-12 9-21 11l29 42h-25zm-37-56h19c13 0 20-5 20-16l-2-6-3-6c-5-3-10-4-15-4h-20l1 32zM683 788h-46l-9 21h-24l43-105h26l42 105h-24l-8-21zm-6-16-17-45-17 45h34zM842 809h-23l-52-72v72h-23V703h23l52 73v-73h23v106zM973 784c-4 8-12 14-21 18-10 5-21 7-32 7h-41V703h41c11 0 22 2 32 7 9 4 17 10 21 18a57 57 0 0 1 0 56zm-26-3c7-7 10-16 10-25s-3-18-10-25c-8-7-18-10-29-9h-16v68h16c11 1 21-3 29-9zM697 115s298 103 292 252v252S691 516 697 367V115zM1254 560c56-35 121-57 189-64v-79c-78 28-145 78-189 143z"></path>
    <path fill="#afb1b8" d="M1220 584c46-85 126-150 223-183V174s-424 146-415 358v359l49-19 1-35c9-98 60-189 142-253z"></path>
    <path fill="#afb1b8" d="M1180 717c2-25 7-49 14-73a332 332 0 0 0-89 216c24-10 52-24 81-39-7-34-9-69-6-104zM1197 718c-3 32-2 63 5 94 116-63 246-161 241-280v-10c-83 9-160 42-221 94-14 33-22 67-25 102z"></path>
  </symbol>
  <symbol xmlns="http://www.w3.org/2000/svg" viewBox="0 0 1809 1024" id="Logo-3">
    <path fill="#afb1b8" d="M412 360c-41 0-74 30-74 66s33 66 74 66 74-30 74-66-33-66-74-66zM959 339c0-50-23-99-63-135s-95-55-151-56c-57 1-112 21-152 56s-63 85-63 135v279s429-43 429-279zM188 709c0 35 16 69 44 94s65 39 105 39 77-14 105-39 44-59 44-94V515s-298 30-298 194zm149 35c-8 0-15-2-22-6-6-4-11-9-14-16-3-6-4-13-2-20 1-6 5-13 10-17s13-9 20-10c8-1 16-1 23 2s13 7 17 13a32 32 0 0 1-4 44c-4 3-8 6-13 7l-15 3zM639 725h-29v29h-15v-72h47v12h-32v19h29v12zm72-5c0 7-2 13-4 19a29 29 0 0 1-27 16c-6 0-12-1-16-4s-9-7-11-12c-3-6-4-12-4-19v-3c0-8 1-14 4-19a29 29 0 0 1 27-17c6 0 11 1 16 4s8 7 11 13c2 5 4 11 4 18v4zm-16-4c0-7-1-13-4-17-2-4-6-6-11-6s-9 2-12 6-4 10-4 17v4c0 7 1 13 4 17s7 6 12 6 9-2 11-6c3-4 4-9 4-17v-4zm64 19c0-2-1-5-3-6l-10-5-13-5c-8-4-12-10-12-18 0-4 1-7 3-10 2-4 6-6 10-8l14-2c5 0 9 1 14 3 4 1 7 4 9 7l3 12h-15c0-3-1-6-3-8l-9-2c-3 0-6 0-8 2-2 1-3 4-3 6l3 6 11 5c8 2 15 5 19 9 3 4 5 9 5 14 0 7-2 12-7 15-5 4-11 5-19 5-6 0-11-1-15-3-5-2-8-4-11-8l-3-12h15c0 8 4 12 14 12 4 0 6-1 8-3 2-1 3-3 3-6zm80-41h-22v60h-15v-60h-22v-12h59v12zm53 29h-29v19h34v12h-49v-72h49v12h-34v17h29v12zm41 5h-12v26h-15v-72h27c8 0 15 2 20 5 4 4 7 10 7 17 0 5-2 9-4 12s-5 6-9 8l15 30h-16l-13-26zm-12-12h12c3 0 6-1 8-3 3-2 4-5 4-8 0-4-1-6-3-8s-5-3-9-3h-12v22zm90 13v25h-15v-72h29c5 0 10 1 14 3s8 5 10 8c2 4 3 8 3 13 0 7-2 13-7 17s-12 6-20 6h-14zm0-12h14c4 0 7-1 9-3s3-5 3-8c0-4-1-7-3-9s-5-3-9-3h-14v23zm95 6h-28v19h33v12h-48v-72h48v12h-33v17h28v12zm70-29h-22v60h-15v-60h-22v-12h59v12zm52 29h-28v19h33v12h-48v-72h48v12h-33v17h28v12zm41 5h-12v26h-15v-72h27c9 0 15 2 20 5 5 4 7 10 7 17 0 5-1 9-3 12s-5 6-10 8l16 30h-16l-14-26zm-12-12h12c4 0 7-1 9-3s3-5 3-8c0-4-1-6-3-8s-5-3-9-3h-12v22zm88 19c0-2-1-5-3-6l-10-5-13-5c-8-4-12-10-12-18 0-4 1-7 3-10 2-4 6-6 10-8l14-2c5 0 9 1 14 3 4 1 7 4 9 7l3 12h-15c0-3-1-6-3-8l-9-2c-3 0-6 0-8 2-2 1-3 4-3 6l3 6 11 5c8 2 15 5 19 9 3 4 5 9 5 14 0 7-2 12-7 15-5 4-11 5-19 5-6 0-11-1-15-3-5-2-8-4-11-8l-3-12h15c0 8 4 12 14 12 4 0 6-1 8-3 2-1 3-3 3-6z"></path>
  </symbol>
  <symbol xmlns="http://www.w3.org/2000/svg" fill="none" viewBox="0 0 106 60" id="Logo-2">
    <path fill="#AFB1B8" d="m36.4 49.1.05.01.04.02.22.21c-.17.17-.38.3-.61.4-.28.1-.58.15-.87.14-.28 0-.56-.04-.82-.13a1.67 1.67 0 0 1-1.01-.95 1.93 1.93 0 0 1 0-1.49c.1-.21.24-.41.43-.58.18-.16.4-.29.65-.37a2.56 2.56 0 0 1 1.63-.02c.21.08.41.2.58.34l-.18.22a.18.18 0 0 1-.05.04.13.13 0 0 1-.07.02.18.18 0 0 1-.08-.03l-.1-.06-.13-.07a1.55 1.55 0 0 0-.76-.16c-.2 0-.41.03-.6.1a1.29 1.29 0 0 0-.78.73 1.5 1.5 0 0 0-.12.58c0 .2.04.41.11.6a1.24 1.24 0 0 0 .76.72c.18.06.37.1.56.1l.33-.02a1.32 1.32 0 0 0 .72-.31.17.17 0 0 1 .1-.04ZM42.7 48.05c0 .26-.04.5-.14.74-.1.21-.23.4-.41.57-.19.17-.4.3-.65.38-.53.18-1.12.18-1.66 0a1.91 1.91 0 0 1-.64-.38 1.68 1.68 0 0 1-.41-.58c-.2-.47-.2-1 0-1.47.1-.22.23-.41.41-.58.19-.16.4-.28.64-.37a2.61 2.61 0 0 1 1.66 0c.24.09.46.22.65.38a1.7 1.7 0 0 1 .55 1.31Zm-.57 0c0-.2-.03-.4-.1-.59a1.22 1.22 0 0 0-.75-.72 1.92 1.92 0 0 0-1.2 0 1.3 1.3 0 0 0-.47.28 1.2 1.2 0 0 0-.3.44c-.13.39-.13.8 0 1.19a1.2 1.2 0 0 0 .76.72c.39.12.82.12 1.2 0 .18-.07.34-.16.47-.28.13-.13.23-.28.29-.44.07-.2.1-.4.1-.6ZM47 48.67l.06.14.06-.14.07-.13 1.4-2.2c.02-.03.05-.06.07-.06a.37.37 0 0 1 .12-.02h.41v3.58h-.49v-2.86l-1.4 2.23a.2.2 0 0 1-.08.08.25.25 0 0 1-.12.03h-.08a.24.24 0 0 1-.12-.03.2.2 0 0 1-.08-.08l-1.44-2.25v2.88h-.48v-3.58h.42c.03 0 .07 0 .11.02.03.01.06.03.08.06l1.42 2.2.07.13ZM52.24 48.5v1.34h-.54v-3.58h1.22c.22 0 .45.03.67.08.18.04.34.12.48.22.13.1.22.22.28.35.06.15.1.3.09.46a1 1 0 0 1-.4.81c-.14.11-.3.2-.48.24a2.3 2.3 0 0 1-.66.09l-.66-.01Zm0-.39h.66c.15 0 .29-.01.43-.05a.92.92 0 0 0 .3-.16.69.69 0 0 0 .25-.54.6.6 0 0 0-.05-.28.69.69 0 0 0-.2-.25c-.2-.14-.46-.2-.73-.19h-.66v1.47ZM59.57 49.84h-.43a.2.2 0 0 1-.12-.03.22.22 0 0 1-.07-.08l-.37-.87h-1.86l-.39.87a.2.2 0 0 1-.2.12h-.42l1.64-3.59h.57l1.65 3.58Zm-2.7-1.33h1.54l-.65-1.45c-.05-.11-.09-.23-.12-.34l-.06.19-.06.15-.65 1.45ZM61.93 46.28l.08.06 2.39 2.7V46.26h.48v3.58h-.27c-.04 0-.08 0-.11-.02a.3.3 0 0 1-.09-.07l-2.38-2.7v2.79h-.49v-3.58h.3c.02 0 .06 0 .09.02ZM68.9 48.42v1.42h-.54v-1.42l-1.51-2.16h.49a.2.2 0 0 1 .12.03l.07.08.94 1.4a2.18 2.18 0 0 1 .17.31l.07-.15.1-.16.92-1.4a.37.37 0 0 1 .07-.08.18.18 0 0 1 .12-.04h.5l-1.52 2.17ZM46.73 40.26l.72.06a19.95 19.95 0 0 0 8.95-6.73 16.11 16.11 0 0 0 3.18-9.9l-4.06-3.52c.83 3.73.44 7.58-1.11 11.13a20.96 20.96 0 0 1-7.68 8.96Z"></path>
    <path fill="#AFB1B8" d="m45.28 40.1.11.01c3.7-2.3 6.53-5.51 8.1-9.23a17.33 17.33 0 0 0 .76-11.59l-5.78-5.01a21.53 21.53 0 0 1 2.71 13.3 22.68 22.68 0 0 1-5.9 12.51ZM64.87 27.83a18.04 18.04 0 0 1-6.8 9.89c-1 .76-2.08 1.43-3.22 2.01 2.79-.71 5.36-1.97 7.5-3.68a16.65 16.65 0 0 0 4.86-6.2l-2.34-2.02Z"></path>
    <path fill="#AFB1B8" d="m63.95 27.26-3.34-2.9a16.76 16.76 0 0 1-3.13 9.35 20.37 20.37 0 0 1-8.16 6.67h.02c.75 0 1.5-.04 2.24-.11a20.61 20.61 0 0 0 8.07-5.15 16.95 16.95 0 0 0 4.3-7.86ZM45.77 12.16 41.79 8.7A18.75 18.75 0 0 0 33 14.72 15 15 0 0 0 29.68 24a15.14 15.14 0 0 0 4.03 10.09 19.39 19.39 0 0 0 10.31 5.81 21.84 21.84 0 0 0 6.1-13.62 21.22 21.22 0 0 0-4.35-14.12ZM73.14 26.73c-.01-4.35-2-8.5-5.54-11.58a20.45 20.45 0 0 0-13.32-4.81c-2.31 0-4.6.37-6.76 1.1l24.36 21.15a14.35 14.35 0 0 0 1.26-5.86Z"></path>
  </symbol>
  <symbol xmlns="http://www.w3.org/2000/svg" fill="none" viewBox="0 0 106 60" id="Logo-1">
    <path fill="#AFB1B8" fill-rule="evenodd" d="M50.11 5.93h-.13l-.63-.02h-.46a23.94 23.94 0 0 0-1.3.03c-3.64.2-7.2 1.12-10.51 2.68l-.43.21v22.14l1.01-.34a34.33 34.33 0 0 1 10.9-1.91v2.91l-1.06.03h-.08a32.36 32.36 0 0 0-13.65 3.85V7.1a29.73 29.73 0 0 1 7.79-3.16A29.8 29.8 0 0 1 48.89 3h.43a21.1 21.1 0 0 1 5.13.65v2.87a22.62 22.62 0 0 0-3.54-.54h-.07c-.25-.02-.5-.05-.73-.05Zm5.04 2.93a31.47 31.47 0 0 0 9.67-.92 31.78 31.78 0 0 0 7.42-2.89v27.89a29.81 29.81 0 0 1-7.79 3.17c-2.4.61-4.86.93-7.33.94a22.4 22.4 0 0 1-5.57-.66V8.32a22.96 22.96 0 0 0 3.6.54Zm14.2.22-1.01.34a34.26 34.26 0 0 1-13.07 1.86l-.82-.05V34l.7.06a26.88 26.88 0 0 0 8.6-.77 27.76 27.76 0 0 0 5.16-1.87l.44-.2V9.08Z" clip-rule="evenodd"></path>
    <path fill="#AFB1B8" d="M35.74 45.21a1.5 1.5 0 0 0-1.13-.45c-.22 0-.44.04-.65.12a1.5 1.5 0 0 0-.95 1.47v3.8c0 .26.04.53.15.77.1.2.22.37.38.51.15.13.33.22.52.27.19.05.38.08.57.08a1.6 1.6 0 0 0 1.57-1.6v-.42h-1v.33c.01.12 0 .24-.05.34a.6.6 0 0 1-.14.22.7.7 0 0 1-.41.14.5.5 0 0 1-.47-.2.9.9 0 0 1-.14-.51v-3.54c0-.2.04-.39.13-.56a.5.5 0 0 1 .48-.23.53.53 0 0 1 .44.21.8.8 0 0 1 .17.5v.34h.98v-.39a1.79 1.79 0 0 0-.45-1.2ZM41.63 45.17a1.77 1.77 0 0 0-1.72-.31c-.2.07-.37.17-.52.3-.17.16-.3.34-.39.54-.1.23-.15.48-.14.74v3.63c-.01.26.04.51.14.75.09.2.22.37.39.5.15.15.32.26.52.33a1.74 1.74 0 0 0 1.18 0 1.55 1.55 0 0 0 1.05-1.57v-3.64a1.64 1.64 0 0 0-.52-1.27Zm-.46 4.9a.66.66 0 0 1-.2.53.73.73 0 0 1-.93 0 .65.65 0 0 1-.2-.53v-3.63a.65.65 0 0 1 .2-.53.73.73 0 0 1 .93 0 .65.65 0 0 1 .2.53v3.63ZM49.37 51.7V44.8h-.96l-1.25 3.65h-.02l-1.26-3.65h-.94v6.89h.98v-4.2h.02l.96 2.97h.5l.97-2.96h.01v4.19h.99ZM54.96 45.3c-.15-.18-.34-.3-.56-.38a2.18 2.18 0 0 0-.71-.11h-1.46v6.89h.98V49h.5c.31.02.61-.04.89-.18a1.65 1.65 0 0 0 .76-1.13 4.9 4.9 0 0 0-.04-1.76 1.47 1.47 0 0 0-.36-.64Zm-.5 2.1c-.01.12-.04.24-.1.35-.06.1-.14.2-.25.24a1 1 0 0 1-.46.1h-.45v-2.35h.5c.16 0 .3.02.45.09.1.05.18.14.23.25a1 1 0 0 1 .08.38V47.4ZM59.6 44.81h-.8L57.3 51.7h.98l.29-1.48h1.33l.3 1.48h.97l-1.55-6.89Zm-.9 4.47.49-2.5h.01l.48 2.5h-.98ZM65.95 48.96h-.02l-1.48-4.15h-.94v6.89h.98v-4.14h.02L66 51.7h.92V44.8h-.98v4.15ZM71.95 44.81l-.8 2.74h-.01l-.8-2.74h-1.03l1.35 3.98v2.9h.98v-2.9l1.35-3.98h-1.04ZM33 53.64h.47v1.33h.32v-1.33h.47v-.27H33v.27ZM36.98 53.37l-.62 1.6h.34l.13-.36h.64l.13.36h.35l-.63-1.6h-.34Zm-.05.97.21-.6.22.6h-.43ZM40.9 54.38h.38v.2a.61.61 0 0 1-.38.14.4.4 0 0 1-.34-.15.67.67 0 0 1-.12-.42c0-.35.15-.53.46-.53a.34.34 0 0 1 .36.25l.32-.06c-.07-.31-.3-.47-.68-.47a.8.8 0 0 0-.56.2.78.78 0 0 0-.23.62c0 .22.06.44.2.6a.78.78 0 0 0 .61.24c.25 0 .5-.09.68-.26v-.63h-.7v.27ZM44.92 53.37h-.32v1.6h1.12v-.27h-.8v-1.33ZM48.32 53.37h-.33v1.6h.33v-1.6ZM51.64 54.44l-.66-1.07h-.31v1.6h.3v-1.04l.64 1.04h.32v-1.6h-.3v1.07ZM54.64 54.27h.8V54h-.8v-.36h.85v-.27h-1.18v1.6h1.22v-.27h-.9v-.43ZM61.91 54h-.63v-.63h-.32v1.6h.32v-.7h.63v.7h.32v-1.6h-.32V54ZM64.93 54.27h.8V54h-.8v-.36h.86v-.27h-1.18v1.6h1.21v-.27h-.89v-.43ZM69.02 54.27c.28-.05.42-.2.42-.45a.38.38 0 0 0-.15-.35.9.9 0 0 0-.47-.1h-.68v1.6h.32v-.67h.06c.07 0 .14.01.2.04.05.03.1.07.12.12l.35.5h.38l-.2-.3c-.08-.16-.2-.3-.35-.4Zm-.32-.22h-.24v-.4h.25c.11-.01.23 0 .33.03a.2.2 0 0 1-.01.33.91.91 0 0 1-.33.04ZM72.11 54.27h.8V54h-.8v-.36h.86v-.27h-1.18v1.6H73v-.27h-.89v-.43Z"></path>
  </symbol>
  <symbol xmlns="http://www.w3.org/2000/svg" fill="none" viewBox="0 0 106 60" id="Logo">
    <path fill="#AFB1B8" fill-rule="evenodd" d="m38 7 7 6.63H32V45.8h34v-12.3l7 6.62V7H38Zm27.7 25.73L45.81 13.92H65.7v18.8Zm-6.18 8.38H37.38V19.46h1.57v20.18h20.57v1.47ZM42.61 50.1l-.82 1.68-.82-1.68h-.68l1.2 2.25v1.3h.61v-1.3l1.2-2.25h-.7Zm1.03 3.55.28-.82h1.38l.3.82h.64l-1.35-3.55h-.55l-1.35 3.55h.65Zm.97-2.8.52 1.48H44.1l.51-1.48Zm3.26 1.4a.8.8 0 0 0-.13.44c0 .3.1.55.31.73.21.19.5.28.85.28s.65-.1.9-.28l.2.23h.7l-.53-.61c.2-.28.3-.64.3-1.08h-.5c0 .24-.06.46-.16.65l-.68-.8.24-.19c.17-.12.3-.24.37-.37a.78.78 0 0 0-.14-.97.9.9 0 0 0-.63-.23.95.95 0 0 0-.69.24.87.87 0 0 0-.25.66c0 .12.03.24.08.36s.15.27.29.44a2.1 2.1 0 0 0-.53.5Zm1.6.78a.9.9 0 0 1-.56.2.58.58 0 0 1-.42-.15.53.53 0 0 1-.16-.4c0-.2.1-.36.3-.51l.07-.06.77.92Zm-.63-1.58c-.17-.2-.25-.37-.25-.51 0-.12.03-.22.1-.3a.35.35 0 0 1 .27-.11c.11 0 .2.03.27.1.07.06.1.14.1.23 0 .14-.05.26-.15.35l-.07.06-.27.18Zm5.78 1.94c.25-.22.39-.51.42-.9h-.61c-.03.26-.11.44-.23.55-.13.11-.3.16-.55.16a.69.69 0 0 1-.6-.3c-.14-.2-.21-.5-.21-.88v-.31c0-.38.07-.67.22-.86.14-.2.35-.3.62-.3.23 0 .4.06.52.17.12.11.2.3.23.55h.61a1.34 1.34 0 0 0-.41-.9 1.37 1.37 0 0 0-.95-.32c-.3 0-.55.07-.77.2-.22.15-.4.34-.51.6-.12.25-.18.55-.18.88v.34c0 .32.06.61.18.86s.28.44.5.57c.22.14.47.2.75.2.4 0 .73-.1.97-.31Zm3.63-.5c.12-.27.18-.57.18-.92v-.2c0-.35-.06-.65-.18-.9a1.36 1.36 0 0 0-1.3-.82c-.28 0-.54.07-.76.21-.22.14-.4.35-.52.61-.12.27-.19.57-.19.92v.2c0 .34.07.64.19.9s.3.46.52.6c.23.14.49.21.77.21.3 0 .55-.07.78-.2.22-.15.4-.35.51-.61Zm-.66-2.01c.15.2.23.51.23.9v.19c0 .4-.08.7-.23.91a.72.72 0 0 1-.63.31.74.74 0 0 1-.63-.31 1.55 1.55 0 0 1-.23-.91v-.2c0-.39.08-.68.23-.9a.73.73 0 0 1 .63-.3c.27 0 .48.1.63.3Z" clip-rule="evenodd"></path>
  </symbol>
  <symbol xmlns="http://www.w3.org/2000/svg" fill="none" viewBox="0 0 20 20" id="linkedin">
    <g fill="#AFB1B8" clip-path="url(#a)">
      <path d="M20 20v-7.34c0-3.58-.77-6.35-4.97-6.35a4.35 4.35 0 0 0-3.92 2.16h-.06V6.65H7.07V20h4.15v-6.61c0-1.74.33-3.43 2.48-3.43 2.13 0 2.16 1.99 2.16 3.54V20H20ZM.33 6.65h4.15V20H.33V6.65ZM2.4 0A2.4 2.4 0 0 0 0 2.4a2.42 2.42 0 0 0 2.4 2.43c1.33 0 2.4-1.1 2.4-2.43A2.4 2.4 0 0 0 2.4 0Z"></path>
    </g>
    <defs>
      <clipPath id="a">
        <path fill="#fff" d="M0 0h20v20H0z"></path>
      </clipPath>
    </defs>
  </symbol>
  <symbol xmlns="http://www.w3.org/2000/svg" fill="none" viewBox="0 0 20 20" id="instagram">
    <g fill="#AFB1B8" clip-path="url(#a)">
      <path d="M19.98 5.88a7.3 7.3 0 0 0-.46-2.43 4.88 4.88 0 0 0-1.16-1.77c-.5-.5-1.1-.9-1.77-1.15a7.33 7.33 0 0 0-2.43-.47A68.25 68.25 0 0 0 10.04 0C7.32 0 6.98.01 5.92.06 4.85.1 4.12.28 3.49.52c-.67.26-1.27.65-1.77 1.16-.51.5-.9 1.1-1.16 1.77A7.33 7.33 0 0 0 .1 5.88 68.25 68.25 0 0 0 .04 10c0 2.72 0 3.06.05 4.12a7.3 7.3 0 0 0 .47 2.43c.25.67.65 1.27 1.16 1.77.5.51 1.1.9 1.77 1.16.63.24 1.36.41 2.42.46 1.07.05 1.4.06 4.12.06s3.06-.01 4.13-.06a7.3 7.3 0 0 0 2.42-.46 5.12 5.12 0 0 0 2.93-2.93c.24-.64.42-1.36.46-2.43.05-1.06.06-1.4.06-4.12 0-2.71 0-3.05-.05-4.12Zm-1.8 8.17c-.04.97-.2 1.5-.34 1.85a3.32 3.32 0 0 1-1.9 1.9c-.35.14-.89.3-1.86.34-1.05.05-1.37.06-4.04.06A70.3 70.3 0 0 1 6 18.14c-.98-.04-1.5-.2-1.85-.34A3.08 3.08 0 0 1 3 17.05a3.1 3.1 0 0 1-.75-1.14 5.5 5.5 0 0 1-.34-1.86 70.37 70.37 0 0 1-.06-4.04c0-2.67.01-2.99.06-4.04.04-.98.2-1.5.34-1.86.16-.43.41-.82.75-1.14a3.1 3.1 0 0 1 1.15-.75c.35-.14.88-.3 1.86-.34 1.05-.05 1.37-.06 4.03-.06 2.68 0 3 0 4.04.06.98.04 1.5.2 1.86.34.43.16.83.41 1.15.75.33.32.59.71.75 1.14.13.36.3.89.34 1.86.05 1.05.06 1.37.06 4.04s-.01 2.98-.06 4.04Z"></path>
      <path d="M10.04 4.86a5.14 5.14 0 1 0 0 10.28 5.14 5.14 0 0 0 0-10.28Zm0 8.47a3.33 3.33 0 1 1 0-6.66 3.33 3.33 0 0 1 0 6.66ZM16.58 4.66a1.2 1.2 0 1 1-2.4 0 1.2 1.2 0 0 1 2.4 0Z"></path>
    </g>
    <defs>
      <clipPath id="a">
        <path fill="#fff" d="M0 0h20v20H0z"></path>
      </clipPath>
    </defs>
  </symbol>
  <symbol xmlns="http://www.w3.org/2000/svg" fill="none" viewBox="0 0 20 20" id="facebook">
    <g clip-path="url(#a)">
      <path fill="#AFB1B8" d="M13.33 3.32h1.83V.14C14.84.1 13.76 0 12.5 0 9.86 0 8.06 1.66 8.06 4.7v2.8h-2.9v3.55h2.9V20h3.56v-8.94h2.79l.44-3.56h-3.23V5.05c0-1.03.28-1.73 1.71-1.73Z"></path>
    </g>
    <defs>
      <clipPath id="a">
        <path fill="#fff" d="M0 0h20v20H0z"></path>
      </clipPath>
    </defs>
  </symbol>
  <symbol xmlns="http://www.w3.org/2000/svg" viewBox="0 0 1365 1024" id="envelope">
    <path fill="#afb1b8" d="M1237 0H128C57 0 0 57 0 128v768c0 70 57 128 128 128h1109c71 0 128-58 128-128V128c0-71-57-128-128-128zm0 85c6 0 12 2 17 4L683 583 112 89c5-2 10-4 16-4h1109zm0 853H128c-24 0-43-19-43-42V179l570 493a43 43 0 0 0 56 0l569-493v717c0 23-19 42-43 42z"></path>
  </symbol>
  <symbol xmlns="http://www.w3.org/2000/svg" fill="none" viewBox="0 0 70 54" id="computer-icon">
    <path fill="#212121" d="M3.5 53.89h55.97a3.5 3.5 0 0 0 3.5-3.5v-4.67a3.5 3.5 0 0 0-3.5-3.5H58.3V13.16l6.63-6.28a3.52 3.52 0 1 0-1.64-1.67L58.3 9.93V7.24a3.5 3.5 0 0 0-3.5-3.5H8.16a3.5 3.5 0 0 0-3.5 3.5v34.99H3.5a3.5 3.5 0 0 0-3.5 3.5v4.66a3.5 3.5 0 0 0 3.5 3.5ZM66.47 2.58a1.17 1.17 0 1 1 0 2.33 1.17 1.17 0 0 1 0-2.33ZM7 7.24c0-.64.52-1.16 1.16-1.16H54.8c.65 0 1.17.52 1.17 1.16v4.9l-2.33 2.22V9.58c0-.65-.52-1.17-1.17-1.17H10.5c-.64 0-1.16.52-1.16 1.17v29.15c0 .64.52 1.16 1.16 1.16h41.98c.65 0 1.17-.52 1.17-1.16V17.57l2.33-2.21v26.87H7V7.24ZM17.5 22.4a3.5 3.5 0 1 0 2.41 6.01l4.06 2.04c.47.23 1.04.12 1.39-.27l8.61-9.7 8.47 6.35c.46.34 1.1.3 1.5-.08l7.37-6.98v17.8H11.66V10.73h39.65v5.82l-8.25 7.81-8.54-6.4a1.17 1.17 0 0 0-1.58.16l-8.73 9.83-3.27-1.64c.03-.14.04-.28.05-.42a3.5 3.5 0 0 0-3.5-3.5Zm1.16 3.5a1.17 1.17 0 1 1-2.34 0 1.17 1.17 0 0 1 2.34 0Zm7 18.66H37.3v1.16c0 .65-.52 1.17-1.16 1.17h-9.33c-.64 0-1.17-.52-1.17-1.17v-1.16ZM2.32 45.72c0-.64.52-1.16 1.17-1.16h19.82v1.16a3.5 3.5 0 0 0 3.5 3.5h9.33a3.5 3.5 0 0 0 3.5-3.5v-1.16h19.82c.64 0 1.16.52 1.16 1.16v4.67c0 .64-.52 1.16-1.16 1.16H3.5c-.65 0-1.17-.52-1.17-1.16v-4.67Z"></path>
  </symbol>
  <symbol xmlns="http://www.w3.org/2000/svg" fill="none" viewBox="0 0 70 70" id="clock-icon">
    <g clip-path="url(#a)">
      <path fill="#212121" d="M68.46 33.47a33.48 33.48 0 1 0-43.66 31.9 1.48 1.48 0 0 0 1.16-.14c.3-.18.51-.45.62-.78l8.45-26.8a4.18 4.18 0 1 0-1.84-7.95L22.03 18.53a1.4 1.4 0 0 0-1.98 1.97l11.17 11.18a4.1 4.1 0 0 0 1.17 5.05l-8.06 25.53a30.72 30.72 0 1 1 23.12-.76l-.87-4.1a1.4 1.4 0 0 0-2.29-.75l-8.4 7.5a1.4 1.4 0 0 0 .51 2.36l10.72 3.42a1.4 1.4 0 0 0 1.79-1.62l-.86-4.02a33.37 33.37 0 0 0 20.41-30.82Zm-33.48-1.4a1.4 1.4 0 1 1 0 2.8 1.4 1.4 0 0 1 0-2.8Zm4.6 32.52 4.78-4.26 1.31 6.21-6.1-1.95Z"></path>
      <path fill="#2196F3" d="M33.59 6.97v2.79a1.4 1.4 0 1 0 2.79 0v-2.8a1.4 1.4 0 0 0-2.8 0ZM8.48 32.08a1.4 1.4 0 0 0 0 2.79h2.79a1.4 1.4 0 1 0 0-2.8h-2.8ZM61.49 34.87a1.4 1.4 0 1 0 0-2.8h-2.8a1.4 1.4 0 0 0 0 2.8h2.8Z"></path>
    </g>
    <defs>
      <clipPath id="a">
        <path fill="#fff" d="M0 0h70v70H0z"></path>
      </clipPath>
    </defs>
  </symbol>
  <symbol xmlns="http://www.w3.org/2000/svg" fill="none" viewBox="0 0 70 70" id="astronaut-icon">
    <path fill="#2196F3" d="M69.94 9.9c-.13-.42-.5-.73-.94-.8l-4.18-.6-1.87-3.8c-.39-.79-1.7-.79-2.09 0L59 8.5l-4.18.6a1.17 1.17 0 0 0-.65 2l3.03 2.94-.71 4.16a1.17 1.17 0 0 0 1.69 1.23l3.74-1.96 3.73 1.96a1.17 1.17 0 0 0 1.7-1.23l-.72-4.16 3.03-2.95c.32-.3.43-.77.3-1.2Zm-5.38 2.9c-.28.27-.4.65-.34 1.03l.42 2.44-2.19-1.15a1.16 1.16 0 0 0-1.09 0l-2.19 1.15.42-2.44c.07-.38-.06-.76-.33-1.03l-1.78-1.73 2.45-.35c.38-.06.71-.3.88-.64l1.1-2.22L63 10.08c.17.34.5.58.88.64l2.45.35-1.77 1.73ZM57.17 44.9h-2.34v2.33h2.34v-2.34ZM57.17 49.56h-2.34v2.33h2.34v-2.33ZM59.5 47.23h-2.33v2.33h2.33v-2.33ZM54.83 47.23H52.5v2.33h2.33v-2.33ZM49 57.73h-2.33v2.33H49v-2.33ZM49 62.4h-2.33v2.33H49v-2.34ZM51.33 60.06H49v2.33h2.33v-2.33ZM46.67 60.06h-2.34v2.33h2.34v-2.33ZM35 53.06h-2.33v2.33H35v-2.33ZM35 57.73h-2.33v2.33H35v-2.33ZM37.33 55.4H35v2.33h2.33v-2.34ZM32.67 55.4h-2.34v2.33h2.34v-2.34ZM12.83 13.4H10.5v2.33h2.33v-2.34ZM12.83 18.06H10.5v2.33h2.33v-2.33ZM15.17 15.73h-2.34v2.33h2.34v-2.33ZM10.5 15.73H8.17v2.33h2.33v-2.33Z"></path>
    <path fill="#212121" d="M54.06 30.97a3.88 3.88 0 0 0-2.6-1.54 3.89 3.89 0 0 0-2.93.77l-2.73 2.1-4.16 3.1-2.97-1.18c5.3-2.38 9-7.67 9-13.83 0-8.36-6.83-15.16-15.23-15.16s-15.22 6.8-15.22 15.16c0 3.04.9 5.85 2.45 8.23l-6.05-.06h-.01l-.05.01c-.12 0-.23.03-.34.07l-.08.03-.05.01-7.07 3.5-4.14 1.99a3.9 3.9 0 0 0 3.88 6.76l3.03-1.61 4.95-2.56 2.97-.02L4.81 48.6l-2.93 2.92a3.6 3.6 0 0 0 0 5.15 3.65 3.65 0 0 0 5.16 0L9.9 53.8l3.81-2.84 1.97 1.96-3.85 3.84-2.93 2.91a3.6 3.6 0 0 0 0 5.16 3.65 3.65 0 0 0 5.16 0L17 61.9l4.68-4.66 2.22-2.2h-.01l.04-.04 11.3-12.38 7.6 1.09a1.1 1.1 0 0 0 .57-.08l.11-.05c.04-.02.09-.03.13-.06l7.03-4.66.06-.07.09-.05 2.78-2.61a3.9 3.9 0 0 0 .46-5.17Zm-49.4 7.9a1.56 1.56 0 0 1-1.69-2.64l2.88-1.38.69 2.02.29.85-2.17 1.15Zm7.65-4-3.39 1.75L8.36 35l-.4-1.17 4.44-2.2-.09 3.25ZM45.34 20.4c0 2.01-.48 3.9-1.31 5.6l-9.15-4.15a4.07 4.07 0 0 0-1.72-3.04l3.2-10.63c5.2 1.65 8.98 6.5 8.98 12.22Zm-25.79 0A12.88 12.88 0 0 1 34.08 7.67l-3.14 10.4-.12-.01a4.1 4.1 0 0 0-4.1 4.08 4.1 4.1 0 0 0 7.64 2.02L42.8 28a12.89 12.89 0 0 1-23.26-7.6Zm13.03 1.75a1.76 1.76 0 0 1-3.53 0c0-.96.8-1.75 1.77-1.75s1.76.79 1.76 1.75ZM5.4 55.01c-.51.51-1.35.5-1.87 0a1.3 1.3 0 0 1 0-1.85l2.1-2.1 1.87 1.86L5.39 55Zm7.03 8.16c-.51.52-1.35.52-1.87 0a1.3 1.3 0 0 1 0-1.84l2.1-2.1.89.88.98.97-2.1 2.1Zm7.62-7.58-3.87 3.85-.88-.88-.98-.98 3.86-3.83c.09-.1.14-.2.2-.3l.05-.1c.04-.08.05-.18.06-.27 0-.06.03-.1.03-.16 0-.08-.03-.16-.04-.23l-.04-.21c-.05-.11-.12-.2-.2-.3l-.06-.09-3.52-3.5c-.03-.04-.08-.05-.12-.08-.07-.05-.13-.1-.2-.13a1.1 1.1 0 0 0-.2-.07 1.13 1.13 0 0 0-.22-.05c-.07 0-.14 0-.21.02-.08 0-.15.02-.23.04-.07.02-.14.06-.2.1-.05.02-.1.03-.14.06l-3.88 2.9-1.97-1.97 5.25-5.22 9.54 9.39-2.03 2Zm14.91-15.35h-.1a1.15 1.15 0 0 0-.83.3l-.09.07-10.28 11.25-9.46-9.3 6.2-6.17a1.17 1.17 0 0 0-.84-2l-4.85.03.06-3.52 6.79.06a15.2 15.2 0 0 0 13.7 4.33c.08.07.17.14.28.19l5.27 2.1.33 1.66.4 1.93-6.58-.93Zm8.84.39-.68-3.41 3.16-2.36.83 1.1 1.24 1.64-4.55 3.03Zm8.22-6.2-1.84 1.72-2.03-2.7 1.81-1.4a1.6 1.6 0 0 1 1.2-.31 1.57 1.57 0 0 1 .86 2.7Z"></path>
    <path fill="#212121" d="m29.75 40.57-4.68-4.67a1.17 1.17 0 0 0-1.65 0l-4.69 4.67a1.17 1.17 0 0 0 0 1.65l4.69 4.67a1.17 1.17 0 0 0 1.65 0l4.68-4.67a1.17 1.17 0 0 0 0-1.65Zm-5.5 3.84L21.2 41.4l3.03-3.02 3.04 3.02-3.04 3.02ZM37.55 11.1l-.57 2.26c.16.04 3.8.99 3.8 4.7h2.34c0-4.41-3.65-6.49-5.57-6.97ZM43.12 20.4h-2.34v2.33h2.34v-2.34Z"></path>
  </symbol>
</svg>